<?xml version="1.0" standalone="no"?>
<!DOCTYPE svg PUBLIC "-//W3C//DTD SVG 1.1//EN" "http://www.w3.org/Graphics/SVG/1.1/DTD/svg11.dtd">
<svg xmlns="http://www.w3.org/2000/svg">
<metadata>Copyright (C) 2023 by original authors @ fontello.com</metadata>
<defs>
<font id="fontello" horiz-adv-x="1000" >
<font-face font-family="fontello" font-weight="400" font-stretch="normal" units-per-em="1000" ascent="850" descent="-150" />
<missing-glyph horiz-adv-x="1000" />
<glyph glyph-name="058-side-car" unicode="&#xe800;" d="M332 558l-40-125h119l6 125h-85z m378 0l40-125h-250l7 125h203z m-168-291c23 0 41 18 41 41 0 23-18 42-41 42-23 0-42-19-42-42 0-23 19-41 42-41z m-250 0c23 0 41 18 41 41 0 23-18 42-41 42-23 0-42-19-42-42 0-23 19-41 42-41z m125 41v-41m335 192l-30 88c-8 28-26 52-50 69-24 17-53 26-83 26h-247c-29 1-58-8-82-25-24-17-42-42-50-69l-35-89-27-17c-19-12-35-28-47-47-11-19-17-40-18-62v-107c0-14 5-28 13-39 9-12 21-20 35-25v-41c0-17 8-34 21-45 13-12 30-18 48-18h80c17 0 35 6 48 18 13 11 21 28 21 45v16h303v-16c1-17 8-34 21-45 13-12 30-18 48-18h82c18 0 35 6 48 18 13 11 21 28 21 45v41c13 5 25 14 33 25 7 11 12 24 12 37v146c2 31-141 80-165 89z m81-171c0-12 4-25 11-35 7-10 16-18 28-23 11-5 24-6 36-4 12 3 23 9 32 17 9 9 15 20 17 32 3 13 1 25-3 37-5 11-13 21-24 28-10 7-22 10-35 10-16 0-32-6-43-18-12-12-19-28-19-44z" horiz-adv-x="1000" />

<glyph glyph-name="062-life-vest" unicode="&#xe801;" d="M423 683l77-173v-448c-2-13-9-24-19-32-9-9-22-13-35-13h-160c-21 0-40 8-55 22-14 14-23 33-23 53v285c0 0 127-15 90 122-13 54-30 107-50 159l175 25z m155 0l-78-173v-448c2-13 9-24 19-32 9-9 22-13 35-13h160c21 0 40 8 55 22 14 14 23 33 23 53v285c0 0-127-15-89 122 12 54 29 107 49 159l-174 25z m5 0l-83-166-83 166c10-10 23-18 37-24 15-5 30-8 46-8 16 0 31 3 45 8 14 6 27 14 37 24m-82-541h292v166h-292v-166z m0 166h-292v-166h292v166z" horiz-adv-x="1000" />

<glyph glyph-name="mail" unicode="&#xe802;" d="M791 550c6-6 8-14 8-22 0-8-4-16-9-22l-3-3-265-209c-6-4-13-7-20-7-7-1-14 1-20 5l-4 2-264 209c-7 6-12 13-13 22-2 8 1 17 6 24 5 7 13 12 22 13 9 2 18 0 25-5l4-2 243-192 243 192c7 5 16 8 25 7 8-1 17-5 22-12z m17 67h-617c-5 0-10-1-15-3-4-2-9-5-12-9-4-3-7-8-9-12-1-5-2-10-2-15v-456c0-5 1-10 2-15 2-4 5-8 9-12 3-4 8-7 12-9 5-2 10-3 15-3h617c6 0 11 1 16 3 4 2 9 5 12 9 4 3 7 8 9 12 2 5 2 10 2 15v456c0 5 0 10-2 15-2 4-5 9-9 12-3 4-8 7-12 9-5 2-10 3-16 3z m0 66c15 0 29-2 42-8 13-5 25-13 35-23 11-9 18-21 24-34 5-13 8-26 8-40v-456c0-14-3-27-8-40-6-13-13-25-24-34-10-10-22-18-35-23-13-6-27-8-42-8h-617c-14 0-28 3-41 8-13 5-25 13-35 23-11 10-18 21-24 34-5 13-8 26-8 40v456c0 14 3 27 8 40 6 13 13 25 24 34 10 10 22 18 35 23 13 6 27 8 41 8h617z" horiz-adv-x="1000" />

<glyph glyph-name="phone" unicode="&#xe803;" d="M286 620l11 5 1-2 7-7c25-28 47-60 64-93l11-23c3-7 3-8 0-13l-7-9c-4-5-13-17-15-21-6-8-9-16-11-25-2-10-2-19 0-28 17-48 45-91 82-126 35-36 78-64 125-80 9-2 19-2 28 0 9 1 18 5 26 10l8 6 14 11c16 12 10 13 33 0l4-3c36-18 69-40 100-66l6-6 3-3v-2c-5-12-11-23-18-33-9-15-22-27-38-35-23-11-56-7-126 33-71 38-135 86-192 143-58 56-106 120-143 191-17 28-29 59-35 91-3 12-2 24 2 35 8 15 20 28 36 36 8 5 16 10 24 14z m118-193l3 4 12 15c25 35 25 49 3 95-20 41-46 80-77 115l-8 8c-16 15-26 19-41 19-4 0-7-1-11-2l-5-3-7-3c-14-6-28-14-42-22-24-14-43-35-56-60-17-38-9-97 35-175 40-76 91-145 153-204 60-61 129-112 204-153 85-47 135-53 177-34 25 12 45 31 59 55 7 11 14 23 19 34l7 17c3 5 4 10 4 15 2 17-5 27-28 49-32 28-68 53-107 73l-7 4c-44 22-58 23-91 0l-16-12-7-5c-2-2-4-3-6-3-2-1-4-1-6 0-37 14-71 36-98 65-28 27-51 60-65 97-1 2-1 4 0 6 0 2 1 4 2 5z" horiz-adv-x="1000" />

<glyph glyph-name="social-media-fb" unicode="&#xe804;" d="M1000 347c0 96-27 190-79 271-51 81-125 146-212 186-86 40-183 54-277 41-95-13-184-53-257-115-72-63-126-145-153-237-28-92-29-190-3-283 26-92 77-175 149-239 71-64 159-106 254-121v351h-125v146h125v111c0 125 75 195 189 195 37 0 75-3 112-9v-126h-63c-11 1-22 0-32-3-11-3-20-9-28-17-8-7-14-16-17-27-4-10-6-21-5-31v-93h139l-22-146h-117v-351c118 19 225 79 302 170 78 91 120 207 120 327z" horiz-adv-x="1000" />

<glyph glyph-name="social-media-gplus" unicode="&#xe805;" d="M989 451h-479v-199h277c-14-62-49-117-100-155-69-43-153-58-233-43-53 10-101 34-141 69-41 35-71 80-89 130-22 64-22 132 0 196 17 50 47 94 87 129 39 35 87 59 139 70 45 10 93 9 138-3 45-12 86-35 121-66 10 9 134 131 143 140-58 53-127 91-202 112-76 21-155 25-232 11-77-14-149-46-212-92-63-46-115-106-151-176-36-69-55-146-55-224 0-78 19-155 55-224 33-64 78-119 134-164 56-44 120-76 189-94 81-22 167-24 249-5 82 18 158 56 222 110 109 100 176 265 142 479" horiz-adv-x="1000" />

<glyph glyph-name="social-media-ig" unicode="&#xe806;" d="M912 764c-64 63-141 103-616 79-78 2-153-27-210-79-54-57-84-133-82-211 0 0 0-2 0-4-2-44-16-420 23-521 13-34 33-64 58-90 26-25 56-45 90-58 39-14 80-22 121-23 95-4 177-7 249-7 254 0 370 37 425 178 14 39 22 80 23 121 20 436 0 536-81 615z m-22-611c0-30-6-60-16-89-42-108-138-124-571-104-30 0-60 6-89 16-20 8-38 20-54 35-15 16-27 34-35 54-25 61-21 326-20 439 1 20 1 35 1 44-2 51 16 102 49 142 38 37 86 58 288 58 65 0 148 0 251-7 52 2 102-16 142-49 48-46 74-105 54-539z m-390 457c-51 0-101-15-144-43-42-29-76-69-96-116-19-47-25-99-15-150 10-50 35-96 71-133 36-36 82-61 132-71 50-10 102-5 149 15 48 19 88 52 117 95 28 42 44 92 44 143 0 69-27 135-76 183-48 49-114 76-182 77z m155-260c0-31-10-61-27-87-17-25-41-45-70-57-29-12-60-15-90-9-31 6-59 21-80 43-22 22-37 50-43 81-6 30-2 62 10 90 12 29 32 53 58 70 26 17 56 26 87 26 41-1 81-17 109-47 29-29 46-68 46-110z m69 317c10 7 23 11 36 11 9 0 17-1 25-5 9-3 16-8 22-14 6-6 11-13 14-21 4-8 6-17 6-26 0-13-4-26-12-36-7-11-17-20-29-25-12-5-25-6-38-4-13 3-25 9-34 18-9 9-15 21-18 34-3 13-1 26 3 38 5 12 14 23 25 30z" horiz-adv-x="1000" />

<glyph glyph-name="social-media-linked" unicode="&#xe807;" d="M847 13h-151v243c0 60-22 100-76 100-17-1-33-6-47-16-14-10-25-24-31-40-3-12-4-24-4-36v-250h-151c0 0 0 409 0 450h151v-64c14 24 33 43 57 56 24 13 51 20 79 19 100 0 173-64 173-200v-262z m-619 513c-11-1-22 0-32 4-10 3-20 9-28 16-8 8-14 16-18 26-4 10-7 21-6 32-1 10 2 21 6 31 4 10 11 19 19 26 8 8 17 13 27 17 11 4 22 5 33 4 20 0 40-8 55-23 15-14 23-34 23-55 0-21-8-40-23-55-15-15-35-23-55-23h-1z m76-513h-151v450h151v-450z m623 837h-852c-10 0-20-2-29-5-9-4-17-9-24-16-7-6-12-14-16-23-4-9-6-18-6-28v-856c0-10 2-19 6-28 4-9 9-17 16-23 7-7 15-12 24-16 9-3 19-5 29-5h852c9 0 19 2 28 5 8 4 16 9 23 16 7 7 13 14 16 23 4 9 6 18 6 28v856c0 10-2 19-6 28-3 9-9 16-16 23-7 7-15 12-23 16-9 3-19 5-28 5z" horiz-adv-x="1000" />

<glyph glyph-name="social-media-tiktok" unicode="&#xe808;" d="M637 850c17-142 98-226 238-235v-160c-81-8-153 18-236 67v-298c0-379-421-498-591-226-109 175-42 482 307 494v-168c-26-4-55-11-81-20-78-25-122-74-109-159 23-163 329-212 303 107v598h169v0z" horiz-adv-x="875" />

<glyph glyph-name="social-media-tw" unicode="&#xe809;" d="M1222 731c-46-20-94-34-144-40 52 32 92 82 111 140-49-29-103-50-160-61-34 37-79 63-128 74-49 11-100 7-147-12-47-18-87-50-115-92-29-42-44-92-44-142 0-20 2-39 7-58-100 5-197 31-286 77-89 45-168 109-231 187-22-39-34-82-34-127 0-41 11-82 30-119 20-37 48-68 82-91-39 1-78 12-112 31v-3c0-58 21-115 58-160 37-45 88-76 146-87-22-6-44-9-66-9-16 0-32 1-47 4 16-49 47-93 89-124 42-32 93-49 145-51-89-70-199-108-312-108-21 0-43 1-64 4 114-75 248-114 384-114 94-1 187 18 274 53 86 36 165 89 231 156 67 67 119 146 155 233 35 87 54 181 53 275 0 11 0 22 0 33 49 36 92 80 125 131z" horiz-adv-x="1222" />

<glyph glyph-name="social-media-wa" unicode="&#xe80a;" d="M796 647c-267 258-709 71-709-293 0-73 19-144 55-207l-59-214 220 58c275-149 614 48 614 363 0 110-43 214-122 292l1 1z m51-292c0-265-291-431-521-296l-12 8-131-34 35 127-8 13c-143 228 21 525 293 525 92 0 178-35 243-101 65-64 101-151 101-242z m0 0c0-265-291-431-521-296l-12 8-131-34 35 127-8 13c-143 228 21 525 293 525 92 0 178-35 243-101 65-64 101-151 101-242z m-194-69l0-2c-61 30-68 34-76 23-5-9-21-27-26-33-5-5-10-6-18-2-8 4-35 13-67 41-24 23-41 50-46 58-8 14 9 16 25 45 3 6 1 11-1 15-2 4-19 45-26 61-6 16-13 14-18 14-16 2-28 1-38-9-45-50-34-100 5-154 75-99 115-117 189-142 19-7 38-6 52-4 16 3 49 20 56 40 7 19 7 36 5 39-2 4-8 6-16 10z" horiz-adv-x="1000" />

<glyph glyph-name="social-media-youtube" unicode="&#xe80b;" d="M1313 765c-27 35-65 58-107 66-126 25-912 25-1038 0-34-7-66-23-92-48-110-107-76-680-49-772 8-33 23-63 44-89 25-26 58-43 93-50 104-22 638-34 1040-3 36 6 69 24 95 50 103 107 96 712 14 846z m-763-600v401c138-67 243-131 367-201-104-59-229-127-369-200" horiz-adv-x="1375" />

<glyph glyph-name="background=false,-position=down" unicode="&#xe80c;" d="M737 302c5 6 10 12 12 20 2 7 2 15-1 22-2 7-6 14-11 19-6 5-12 9-20 11-8 2-16 3-24 1-8-2-15-6-20-11l-129-123 0 317c0 11-4 22-13 30-8 8-19 12-31 12-12 0-23-4-32-12-8-8-13-19-13-30l0-316-129 122c-4 4-9 7-15 9-5 2-11 3-17 3-12 0-23-5-31-13-8-8-13-18-13-29 0-11 5-22 13-30l206-192c8-8 19-12 31-12 11 0 23 4 31 12l206 190z" horiz-adv-x="1000" />

<glyph glyph-name="background=false,-position=left" unicode="&#xe80d;" d="M452 113c6-5 12-9 20-12 7-2 15-1 22 1 7 2 14 6 19 11 5 6 9 13 11 20 2 8 3 16 1 24-2 8-6 15-11 21l-123 128 317 0c11 0 22 4 30 13 8 8 12 19 12 31 0 12-4 23-12 32-8 8-19 13-30 13l-316 0 122 129c4 5 7 9 9 15 2 5 3 11 3 17 0 12-5 23-13 31-8 8-18 13-29 13-11 0-22-5-30-13l-192-206c-8-8-12-19-12-31 0-11 4-23 12-31l190-206z" horiz-adv-x="1000" />

<glyph glyph-name="background=false,-position=right" unicode="&#xe80e;" d="M548 587c-6 5-12 10-20 12-7 2-15 2-22-1-7-2-14-6-19-11-5-6-9-12-11-20-2-8-2-16-1-24 2-8 6-15 11-20l124-129-318 0c-11 0-22-4-30-13-8-8-12-19-12-31 0-12 4-23 12-32 8-8 19-13 30-13l316 0-122-129c-3-4-6-9-9-15-2-5-3-11-3-17 0-12 5-23 13-31 8-8 18-13 29-13 11 0 22 5 30 13l192 206c8 8 12 19 12 31 0 11-4 23-12 31l-190 206z" horiz-adv-x="1000" />

<glyph glyph-name="background=false,-position=up" unicode="&#xe80f;" d="M263 398c-5-6-9-12-12-20-2-7-1-15 1-22 2-7 6-14 11-19 6-5 13-9 20-11 8-2 16-2 24-1 8 2 15 6 21 11l128 124 0-318c0-11 4-22 13-30 8-8 19-12 31-12 12 0 23 4 32 12 8 8 13 19 13 30l0 316 129-122c5-3 9-6 15-9 5-2 11-3 17-3 12 0 23 5 31 13 8 8 13 18 13 29 0 11-5 22-13 30l-206 192c-8 8-19 12-31 12-11 0-23-4-31-12l-206-190z" horiz-adv-x="1000" />

<glyph glyph-name="position=down" unicode="&#xe810;" d="M525 69l132 135 3 3c5 8 7 16 7 25-1 9-5 17-11 24l-3 3c-7 5-15 8-24 7-8 0-17-4-23-10l-69-73 0 423c-1 10-5 20-13 26-7 7-16 10-26 10-10-1-19-6-26-13-6-8-9-17-9-27l0-419-70 73-2 3c-7 5-16 8-25 7-8 0-16-4-22-10-7-7-11-17-11-26 0-10 4-19 11-26l131-136 3-2c7-6 16-8 24-8 9 1 17 5 23 11z" horiz-adv-x="1000" />

<glyph glyph-name="position=left" unicode="&#xe811;" d="M219 325l135-132 3-3c8-5 16-7 25-7 9 1 17 5 24 11l3 3c5 7 8 15 7 24 0 9-4 17-10 23l-73 69 423 0c10 1 20 5 26 13 7 7 10 17 10 26-1 10-6 19-13 26-8 6-17 9-27 9l-419 0 73 70 3 3c5 7 8 15 7 24 0 8-4 16-10 23-7 6-17 10-26 10-10 0-19-4-26-10l-136-132-2-3c-6-7-8-16-8-24 1-9 5-17 11-23z" horiz-adv-x="1000" />

<glyph glyph-name="position=up" unicode="&#xe812;" d="M475 631l-132-135-3-3c-5-8-7-16-7-25 1-9 5-17 11-24l3-3c7-5 15-8 24-7 9 1 17 4 23 10l69 73 0-423c1-10 5-19 13-26 7-7 17-10 26-10 10 1 19 6 26 13 6 8 9 17 9 28l0 418 70-73 3-3c6-5 15-8 24-7 8 1 16 4 23 10 6 7 10 17 10 26 0 10-4 19-10 26l-132 136-3 2c-7 6-16 8-24 8-9-1-17-5-23-11z" horiz-adv-x="1000" />

<glyph glyph-name="position=right" unicode="&#xe813;" d="M781 375l-135 132-3 3c-8 5-16 7-25 7-9-1-17-5-24-11l-3-3c-5-7-8-15-7-24 1-8 4-17 10-23l73-69h-423c-10-1-19-5-26-13-7-7-10-16-10-26 1-10 6-19 13-26 8-6 17-9 28-9h418l-73-70-3-2c-5-7-8-16-7-24 1-9 4-17 10-23 7-7 17-11 26-11 10 0 19 4 26 11l136 131 2 3c6 7 8 16 8 24-1 9-5 17-11 23z" horiz-adv-x="1000" />

<glyph glyph-name="position=down-1" unicode="&#xe814;" d="M304 463c7 7 17 11 27 12 10 1 20-3 28-9l4-3 137-138 137 138c7 7 17 11 27 12 10 1 20-3 28-9l4-3c7-7 12-17 12-27 1-10-2-20-8-28l-4-4-166-167c-7-7-17-11-27-12-10 0-20 3-28 9l-4 3-167 167c-4 4-7 8-9 13-2 5-3 11-3 16 0 6 1 11 3 16 2 5 5 10 9 14z" horiz-adv-x="1000" />

<glyph glyph-name="position=left-1" unicode="&#xe815;" d="M613 546c7-7 11-17 12-27 1-10-3-20-9-28l-3-4-138-137 138-137c7-7 11-17 12-27 1-10-3-20-9-28l-3-4c-7-7-17-12-27-12-10-1-20 2-28 9l-4 3-167 166c-7 8-11 17-12 27 0 10 3 20 9 28l3 5 167 166c4 4 8 7 13 9 5 2 11 3 16 3 6 0 11-1 16-3 5-2 10-5 14-9z" horiz-adv-x="1000" />

<glyph glyph-name="position=right-1" unicode="&#xe816;" d="M387 154c-7 7-11 17-12 27 0 10 3 20 9 28l3 4 137 137-137 137c-7 7-11 17-12 27 0 10 3 20 9 28l3 4c7 7 17 12 27 12 10 1 20-2 28-8l4-4 167-166c7-7 11-17 12-27 1-10-3-20-9-28l-3-4-167-167c-4-4-8-7-13-9-5-2-11-3-16-3-6 0-11 1-16 3-5 2-10 5-14 9z" horiz-adv-x="1000" />

<glyph glyph-name="position=up-1" unicode="&#xe817;" d="M696 237c-7-7-17-11-27-12-10 0-20 3-28 9l-4 3-137 138-137-138c-7-7-17-11-27-12-10 0-20 3-28 9l-4 3c-7 7-12 17-12 27-1 10 2 20 9 28l3 4 166 167c8 7 17 11 27 12 10 1 20-3 28-9l5-3 166-167c4-4 7-8 9-13 2-5 3-11 3-16 0-6-1-11-3-16-2-5-5-10-9-14z" horiz-adv-x="1000" />

<glyph glyph-name="003-attachment" unicode="&#xe818;" d="M824 398c-4 4-9 7-14 10-6 2-11 3-17 3-6 0-12-1-17-3-5-3-10-6-14-10l-292-301c-25-25-58-39-92-39-35 0-68 14-93 39-24 25-37 59-37 95 0 35 13 70 37 95l320 330c7 7 15 13 25 16 9 4 19 6 29 6 10 0 19-2 29-6 9-3 17-9 24-16 15-15 22-35 22-56 0-21-7-41-22-56l-268-276c-4-5-9-7-15-7-6 0-12 2-16 7-4 4-6 10-6 16 0 2 0 5 2 8 1 3 2 5 4 7l223 230c4 4 7 9 9 15 3 5 4 11 4 17 0 10-4 20-11 28-7 7-17 12-27 12-13 1-26-4-36-13l-220-228c-20-20-31-48-31-76 0-29 11-57 31-77 19-20 46-31 74-31 28 0 54 11 74 31l268 277c30 31 46 73 46 116 0 44-16 85-46 116-30 31-70 48-112 48-42 0-83-17-112-48l-320-328c-39-42-61-97-60-155 0-58 22-114 62-155 40-41 93-64 149-64 56 0 110 22 150 63l290 299c9 8 15 20 15 32 1 10-2 21-9 29z" horiz-adv-x="1000" />

<glyph glyph-name="004-circle" unicode="&#xe819;" d="M500 558c-41 0-81-12-115-35-35-22-61-55-77-93-16-38-20-80-12-120 8-41 27-78 57-107 29-29 66-49 106-57 41-8 83-4 121 12 38 15 70 42 93 76 23 35 35 75 35 116 0 55-22 108-60 147-39 39-92 61-148 61z m0-324c-22 0-45 7-64 20-19 12-34 31-43 52-8 21-11 44-6 67 4 22 15 43 32 59 16 16 36 27 59 32 22 4 46 2 67-7 21-9 39-24 52-43 13-19 19-41 19-64 0-31-12-60-34-82-21-21-51-34-82-34z" horiz-adv-x="1000" />

<glyph glyph-name="005-calculator" unicode="&#xe81a;" d="M667 492c-5-5-11-8-17-8h-301c-3 0-6 1-9 2-3 2-6 4-8 7-2 2-4 5-5 9-1 3-2 6-2 10v105c0 7 3 14 7 19 5 5 11 8 17 8h302c6 0 13-3 17-8 5-5 8-11 8-19v-105c0-4-1-8-2-11-2-4-4-7-7-9z m-30-169c-7 0-14 3-21 7-6 5-11 11-14 18-2 8-3 16-2 24 2 8 5 15 11 20 5 6 12 10 19 11 7 2 15 1 22-2 7-3 13-8 17-15 4-6 6-14 6-22 0-11-4-21-11-29-7-7-17-12-27-12z m38-227c0-11-4-21-11-29-7-7-17-11-27-11-10 0-19 4-26 11-7 8-11 18-11 29v133c0 10 4 21 11 28 7 8 16 12 26 12 10 0 20-4 27-12 7-7 11-18 11-28v-133z m-175 227c-7 0-15 3-21 7-6 5-11 11-14 18-3 8-3 16-2 24 2 8 5 15 10 20 6 6 12 10 20 11 7 2 15 1 21-2 7-3 13-8 17-15 5-6 7-14 7-22 0-11-4-21-11-29-7-7-17-12-27-12z m0-135c-7 0-15 3-21 7-6 5-11 11-14 18-3 8-3 16-2 24 2 7 5 15 10 20 6 6 12 10 20 11 7 2 15 1 21-2 7-3 13-8 17-15 5-6 7-14 7-22 0-11-4-21-11-29-7-7-17-12-27-12z m0-133c-7 0-15 2-21 7-6 4-11 10-14 18-3 7-3 15-2 23 2 8 5 15 10 21 6 5 12 9 20 11 7 1 15 1 21-2 7-3 13-9 17-15 5-7 7-15 7-23-1-10-5-20-12-28-7-7-16-11-26-11v-1z m-137 268c-8 0-15 3-21 7-6 5-11 11-14 18-3 8-4 16-2 24 1 8 5 15 10 20 5 6 12 10 19 11 8 2 15 1 22-2 7-3 13-8 17-15 4-6 7-14 7-22 0-11-4-21-12-29-7-7-16-12-26-12z m0-134c-8 0-15 3-21 7-6 5-11 11-14 18-3 8-4 16-2 24 1 8 5 15 10 21 5 5 12 9 19 11 8 1 15 0 22-3 7-3 13-8 17-15 4-6 7-14 7-22 0-6-1-11-3-16-2-5-5-10-8-13-4-4-8-7-13-10-4-2-9-3-14-3v1z m0-133c-8 0-15 2-21 7-6 4-11 11-14 18-3 7-4 15-2 23 1 8 5 15 10 21 5 6 12 10 19 11 8 2 15 1 22-2 7-3 13-8 17-15 4-7 7-15 7-23 0-10-4-21-12-28-7-8-16-12-26-12z m386 588c0 22-8 42-22 57-14 16-33 24-53 24h-349c-20 0-39-8-53-24-14-15-22-35-22-57v-588c0-21 8-42 22-57 14-16 33-24 53-24h350c20 0 39 8 53 24 14 15 22 36 22 57l-1 588z" horiz-adv-x="1000" />

<glyph glyph-name="006-calendar" unicode="&#xe81b;" d="M801 628h-67v38c0 2 0 4-1 6-1 3-2 4-4 6-2 2-4 3-6 4-2 1-5 1-7 1h-28c-3 0-5 0-7-1-3-1-5-2-6-4-2-2-4-3-4-6-1-2-2-4-2-6v-38h-336v38c0 4-2 9-6 12-3 4-8 5-13 5h-28c-5 0-9-1-13-5-3-3-5-8-5-12v-38h-67c-10 1-20-1-29-5-9-4-18-9-25-16-7-6-12-14-16-23-4-9-6-19-6-28v-467c0-19 8-37 22-51 14-14 33-21 53-21h601c20 0 39 8 52 22 14 13 22 31 22 50v467c0 19-8 37-22 51-13 13-32 21-52 21z m-476-45c0-3-1-5-3-7-2-2-5-3-7-3h-29c-3 0-5 1-7 3-2 2-3 4-3 7v37h49v-37z m485-165v-309c0-8-4-16-9-22-6-5-14-9-23-9h-556c-9 0-17 4-22 9-6 6-10 14-10 22v309c0 3 2 5 3 7 2 2 5 3 7 3h601c3-1 5-2 6-4 2-1 3-3 3-6z m-134 202h48v-37c0-3-1-5-3-7-1-2-4-3-7-3h-28c-3 0-5 1-7 3-2 2-3 4-3 7v37z" horiz-adv-x="1000" />

<glyph glyph-name="007-share" unicode="&#xe81c;" d="M722 628c-11 0-21-4-31-10-9-6-16-15-20-25-4-10-5-21-3-32 2-11 7-20 15-28 8-8 18-13 28-15 11-3 22-1 33 3 10 4 18 11 24 20 7 9 10 20 10 31 0 15-6 29-16 39-11 11-25 17-40 17z m-444-223c-11 0-22-3-31-9-9-6-16-15-20-25-5-10-6-21-4-32 3-11 8-21 16-28 7-8 17-13 28-16 11-2 22-1 32 4 10 4 19 11 25 20 6 9 9 20 9 31 0 15-5 29-16 39-10 11-24 16-39 16z m444-222c-11 0-21-3-31-9-9-6-16-15-20-25-4-10-5-21-3-32 2-11 7-21 15-28 8-8 18-14 28-16 11-2 22-1 33 3 10 5 18 12 24 21 7 9 10 20 10 31 0 15-6 29-16 39-11 10-25 16-40 16z m-364 244l253 134c0 4 0 7 0 11 0 27 10 52 27 72 17 21 41 34 67 38 26 4 53-1 76-15 22-14 39-36 47-61 8-26 7-53-4-77-10-25-29-45-53-56-23-12-51-15-76-8-26 6-49 22-64 44l-246-131c5-19 5-38 0-56l246-131c15 22 38 38 64 44 25 7 52 4 76-8 24-11 43-31 53-55 11-25 12-52 4-78-8-25-24-46-47-60-23-15-49-20-76-16-26 4-50 17-67 37-17 21-27 46-27 73 0 3 0 7 0 11l-253 134-3-3c-16-15-36-25-57-29-22-4-44-2-64 7-20 8-37 23-49 41-12 18-18 39-18 61 0 22 6 43 18 61 12 18 29 33 49 41 20 9 42 11 64 7 21-4 41-14 57-29l3-3z" horiz-adv-x="1000" />

<glyph glyph-name="008-car" unicode="&#xe81d;" d="M848 438l-25 17-35 125c-7 29-24 56-48 75-24 18-53 29-84 28h-317c-31 1-61-10-84-28-24-19-41-46-48-75l-33-125-25-18c-20-13-36-31-48-52-11-21-17-44-18-68v-117c0-15 5-29 13-42 8-12 20-22 35-27v-45c0-19 7-36 20-49 13-13 31-20 49-20h79c18 0 36 7 49 20 13 13 21 30 21 49v17h302v-17c0-19 7-36 20-49 13-13 31-20 50-20h79c18 0 36 7 49 20 13 13 21 30 21 49v46c14 5 26 15 34 27 9 12 13 27 13 42v116c-1 24-7 48-19 69-12 21-30 39-50 52z m-564-302v-50c0-1-1-2-2-3-1-1-2-1-3-1h-80c-1 0-2 0-3 1-1 1-1 2-1 3v73c-1 8-4 16-10 22-6 6-14 9-23 9h-5c-2 1-4 2-6 3-1 2-2 4-2 7v117c0 13 3 27 9 39 6 12 15 22 26 30l35 24c6 5 11 11 13 18l35 138c3 16 12 30 25 40 13 10 28 15 45 15h319c16 0 32-5 45-16 13-10 21-24 25-40l36-138c2-7 7-13 13-17l38-24c11-8 21-18 27-30 6-12 10-26 10-39v-117c0-2-1-5-3-7-2-2-5-3-7-3h-5c-9 0-17-3-23-9-6-6-9-14-10-22v-72c0-1 0-3-1-4-1 0-2-1-3-1h-79c-2 0-3 1-4 1-1 1-1 3-1 4v49c0 8-4 16-10 22-6 6-14 9-22 9h-367c-8 0-16-3-22-9-6-6-9-14-9-22z m-81 189c9 6 20 10 31 10 14 0 28-5 38-15 10-10 16-23 17-38 0-10-3-21-9-30-5-9-14-16-24-20-10-5-21-6-31-4-11 2-21 7-28 14-8 8-14 17-16 28-2 10-1 21 3 31 4 10 11 18 19 24z m177-12h237c4 1 9 0 13-1 5-2 8-4 12-7 3-3 6-7 8-11 1-4 2-8 2-13 0-4-1-8-2-12-2-5-5-8-8-11-4-3-7-5-12-7-4-1-9-2-13-1h-237c-4-1-9 0-13 1-5 2-8 4-12 7-3 3-6 6-8 11-2 4-2 8-2 12 0 5 0 9 2 13 2 4 5 8 8 11 4 3 7 5 12 7 4 1 9 2 13 1z m337-60c-6 9-9 19-9 29 0 14 6 28 16 37 10 10 23 16 37 16 11 0 21-3 30-9 8-6 15-14 19-24 4-9 5-20 3-30-2-10-7-19-14-27-8-7-17-12-27-14-11-2-21-1-31 3-10 4-18 11-24 19z m-77 189c-3 6-8 11-13 16-10 8-22 12-34 12-13 0-24-4-34-12-6-5-10-10-14-17l-196 0 21 83c1 4 3 7 6 10 3 2 7 4 11 4h223c4 0 8-2 11-4 4-3 6-6 6-10l21-82-8 0z m75-26c-1-5-3-10-7-14-3-5-8-8-13-10-5-3-10-4-16-4h-361c-6 0-11 2-16 4-5 2-9 6-12 10-3 4-6 9-7 14-1 5-1 11 0 16l28 106c4 15 12 28 25 37 12 9 27 13 42 12h245c15 0 29-5 41-14 12-9 20-23 23-37l28-104c1-5 1-10 0-16z" horiz-adv-x="1000" />

<glyph glyph-name="009-chat" unicode="&#xe81e;" d="M676 478c12 0 23-4 33-10 10-6 18-15 22-26 5-10 6-22 4-33-3-11-8-21-17-29-8-8-18-14-30-16-11-2-23-1-34 4-11 4-20 11-27 21-6 9-9 20-9 32 0 15 6 29 17 40 11 11 26 17 41 17z m-176 0c12 0 23-4 33-10 10-6 17-15 22-25 4-11 6-22 3-34-2-11-7-21-16-29-8-8-18-13-30-16-11-2-23-1-34 4-11 4-20 11-27 21-6 9-10 20-10 31 0 8 2 15 5 22 3 7 7 14 12 19 6 5 12 9 20 12 7 3 14 5 22 5z m-176 0c11 0 23-4 33-10 9-6 17-15 21-26 5-10 6-22 4-33-3-11-8-21-16-29-9-8-19-14-31-16-11-2-23-1-34 4-11 4-20 11-26 21-7 9-10 20-10 31 0 8 1 15 4 22 3 7 7 14 13 19 5 5 12 10 19 12 7 3 15 5 23 5z m455 180h-558c-18 0-35-7-48-20-13-12-20-29-20-46v-342c0-18 7-35 20-47 12-12 30-20 48-20h73c9 0 18-3 24-9 7-7 11-15 11-24v-71l115 93c8 6 17 10 27 11h308c18 0 36 7 48 19 13 13 20 29 20 47v343c0 17-7 34-20 46-12 13-30 20-48 20z m0 67c37 0 72-14 97-39 26-25 41-59 41-94v-343c0-35-15-69-41-94-25-25-60-39-97-39h-296l-166-135c-5-3-11-5-17-6-6 0-12 0-18 2-5 3-10 6-14 11-4 4-7 10-8 15v113h-39c-35 0-69 13-95 37-25 23-41 56-43 90v349c0 35 15 69 41 94 25 25 60 39 97 39h558z" horiz-adv-x="1000" />

<glyph glyph-name="010-tick" unicode="&#xe81f;" d="M719 585c7 9 16 14 27 15 11 1 21-2 30-9 8-7 14-16 15-27 2-11-1-22-6-31l-4-5-350-414c-7-8-17-13-27-14-11-1-21 2-29 9l-4 3-150 156c-4 4-7 8-9 14-3 5-4 10-4 16 0 6 1 11 4 17 2 5 5 10 9 14 7 7 16 12 27 12 10 1 20-2 28-9l4-3 118-123 321 379z" horiz-adv-x="1000" />

<glyph glyph-name="011-tick-squared" unicode="&#xe820;" d="M692 517c6-5 10-12 11-20 2-7 0-15-5-22l-2-3-241-287c-2-3-6-5-9-7-4-2-8-3-12-4-4 0-8 1-12 2-4 1-8 3-11 6l-3 3-103 114c-3 3-5 7-6 11-2 4-2 8-2 12 0 4 1 8 3 12 2 3 4 7 7 9 6 5 13 8 21 8 7 0 15-3 20-8l3-2 79-88 219 259c5 6 12 10 20 11 8 1 16-1 23-6z m66 146h-516c-14 0-28-6-38-16-11-11-16-25-16-39v-516c0-14 5-28 16-38 10-11 24-16 38-16h516c14 0 28 5 39 16 10 10 16 24 16 38v516c0 14-6 28-16 39-11 10-25 16-39 16z m0 62c31 0 61-12 83-34 22-22 34-52 34-83v-516c0-31-12-61-34-83-22-22-52-34-83-34h-516c-31 0-61 12-83 34-22 22-34 52-34 83v516c0 31 12 61 34 83 22 22 52 34 83 34h516z" horiz-adv-x="1000" />

<glyph glyph-name="012-square" unicode="&#xe821;" d="M242 663h516c14 0 28-6 39-16 10-11 16-25 16-39v-516c0-14-6-28-16-38-11-11-25-16-39-16h-516c-14 0-28 5-38 16-11 10-16 24-16 38v516c0 14 5 28 16 39 10 10 24 16 38 16z m516 62h-516c-31 0-61-12-83-34-22-22-34-52-34-83l0-516c0-31 12-61 34-83 22-22 52-34 83-34h516c31 0 61 12 83 34 22 22 34 52 34 83v516c0 31-12 61-34 83-22 22-52 34-83 34z" horiz-adv-x="1000" />

<glyph glyph-name="017-tick-rounded" unicode="&#xe822;" d="M491 241l-156 156-3 3c-7 6-16 9-25 8-9-1-18-5-24-12-6-7-9-16-8-25 0-9 4-17 10-23l183-183 3-3c7-5 16-7 25-6 9 1 17 5 23 12l344 386c53-93 67-204 41-308-27-104-93-193-184-250-91-57-201-76-306-54-105 22-198 85-258 173-61 89-85 198-67 303 18 106 76 201 162 266 85 64 193 93 300 80 106-13 204-67 272-150" horiz-adv-x="1000" />

<glyph glyph-name="018-cross-rounded" unicode="&#xe823;" d="M500 767c-82 0-163-25-231-71-69-45-122-110-154-186-31-77-40-160-24-241 16-81 56-155 114-214 59-58 133-98 214-114 81-16 164-8 240 24 77 32 142 85 187 154 46 68 71 149 71 231 0 111-44 217-122 295-78 78-184 122-295 122z m190-549c5-5 9-13 10-20 1-8 1-16-2-24-3-7-9-13-15-18-7-4-14-7-22-7-11 0-22 4-29 12l-132 131-132-132c-7-7-18-12-29-12-10 0-21 5-29 12-7 8-12 19-12 29 0 11 5 22 12 29l132 132-132 132c-3 3-6 8-8 13-2 5-4 10-4 16 0 5 2 10 4 15 2 5 5 10 8 14 4 4 9 7 14 9 5 2 10 3 15 3 6 0 11-1 16-3 5-2 10-5 13-9l132-132 132 132c3 4 8 7 13 9 5 2 10 3 16 3 5 0 11-1 15-3 5-2 10-5 14-9 3-4 6-9 9-14 2-5 3-10 3-15 0-6-1-11-3-16-3-5-6-10-9-13l-132-132 132-132z" horiz-adv-x="1000" />

<glyph glyph-name="019-avatar" unicode="&#xe824;" d="M500 574c19 0 37-3 55-11 17-7 32-17 45-31 13-14 23-30 29-48 6-18 8-37 6-56-1-36-16-71-41-97-25-27-58-43-95-46-36 3-69 20-94 46-25 26-40 61-41 97-2 19 0 38 6 56 6 17 16 34 29 48 13 14 29 24 46 32 17 7 36 10 55 10z m0 128c-47-1-93-10-136-28-42-18-81-45-114-78-33-33-59-73-76-116-17-43-26-89-26-136 2-86 35-169 94-232 0-1 1-2 2-2 1-1 3-1 4-1 1 0 2 0 3 1 1 0 2 1 3 2 18 23 40 43 64 59 55 34 118 52 182 51 64 1 127-17 182-50 25-16 46-36 64-59 1-1 2-2 3-3 1 0 2 0 3 0 2 0 3 0 4 0 1 1 2 2 2 3 47 50 77 112 88 180 12 67 3 136-24 198-28 63-73 116-130 153-57 38-124 58-192 58z m6 65c82-1 162-27 229-73 68-46 120-111 151-187 31-76 39-159 22-240-16-80-55-154-113-212-58-58-132-97-212-113-80-17-164-9-240 22-76 31-141 83-187 151-46 67-71 147-73 229 0 56 10 111 31 163 21 51 52 98 91 138 40 39 87 70 138 91 52 21 107 31 163 31z" horiz-adv-x="1000" />

<glyph glyph-name="020-cross" unicode="&#xe825;" d="M735 187c7-7 11-16 13-26 2-10 1-20-3-29-4-9-10-17-18-22-8-6-18-9-28-9-13 0-26 5-36 15l-163 162-163-163c-10-10-23-15-36-15-14 0-27 5-36 15-10 9-15 22-15 36 0 13 5 26 15 36l163 163-163 163c-5 5-9 10-11 17-3 6-4 12-4 19 0 7 1 13 4 19 2 7 6 12 11 17 5 5 10 9 16 11 6 3 13 4 20 4 6 0 13-1 19-4 7-2 12-6 17-11l163-163 163 163c5 5 11 9 17 11 6 3 13 4 19 4 7 0 14-1 20-4 6-2 12-6 16-11 5-5 9-10 11-17 3-6 4-12 4-19 0-7-1-13-4-19-2-7-6-12-11-17l-163-163 163-163z" horiz-adv-x="1000" />

<glyph glyph-name="021-minus" unicode="&#xe826;" d="M709 308h-418c-11 0-21 5-29 13-8 7-12 18-12 29 0 11 4 22 12 30 8 7 18 12 29 12h418c11 0 21-5 29-12 8-8 12-19 12-30 0-11-4-22-12-29-8-8-18-13-29-13z" horiz-adv-x="1000" />

<glyph glyph-name="022-plus" unicode="&#xe827;" d="M708 392h-166v166c0 11-4 22-12 30-8 8-19 12-30 12-11 0-22-4-30-12-8-8-12-19-12-30v-166h-166c-11 0-22-4-30-12-8-8-12-19-12-30 0-11 4-22 12-30 8-8 19-12 30-12h166v-166c0-11 4-22 12-30 8-8 19-12 30-12 11 0 22 4 30 12 8 8 12 19 12 30v166h166c11 0 22 4 30 12 8 8 12 19 12 30 0 11-4 22-12 30-8 8-19 12-30 12z" horiz-adv-x="1000" />

<glyph glyph-name="023-double-check" unicode="&#xe828;" d="M766 547c3 4 7 7 11 9 5 2 9 4 14 5 5 0 10 0 15-1 4-1 9-4 13-7 4-2 7-6 9-10 3-4 4-9 5-14 1-4 0-9-1-14-1-4-3-9-6-12l-3-4-314-347c-6-7-15-11-24-12-10-1-19 2-27 7l-3 3-134 130c-4 4-6 8-8 12-2 5-3 9-3 14 0 5 1 10 3 14 2 4 4 8 8 12 6 6 15 10 24 10 9 1 18-2 25-7l3-3 107-103 286 318z m-73-3l-203-226c-7-6-16-9-25-9-8 0-17 4-23 10-4 3-7 6-9 10-3 3-4 7-5 12-1 4-1 8 0 13 1 4 3 8 6 11l203 226c3 3 7 5 11 7 4 2 8 2 13 2 4 0 9-1 13-3 4-2 7-4 10-8 8-5 13-12 14-21 2-8 0-17-5-24z m-464-250l147-140c4-7 6-15 5-23-2-8-6-15-13-20-6-6-14-10-23-11-8-1-17 1-25 5l-145 140c-6 7-9 16-8 25 1 9 5 17 12 23 6 6 15 10 25 10 9 1 18-3 25-9z" horiz-adv-x="1000" />

<glyph glyph-name="024-download" unicode="&#xe829;" d="M501 683c7 0 14-2 19-7 5-4 8-10 9-17v-380l62 63c5 5 12 8 18 8 7 0 14-2 19-6l3-2c5-5 7-11 8-18 0-7-2-13-6-19l-2-2-111-112c-5-4-11-7-18-8-7 0-14 2-19 6l-3 2-111 112c-2 2-4 5-6 9-1 3-2 7-2 10 0 4 1 8 2 11 2 3 4 6 6 9 5 5 11 8 18 8 7 0 14-2 19-6l3-2 65-65v379c0 7 3 14 8 19 5 5 12 8 19 8z m-112-166c7 0 15-2 20-7 6-5 9-12 9-19 1-8-2-15-7-21-4-5-11-8-19-9h-59c-7-1-14-4-19-10-5-5-8-13-8-20v-325c-1-8 1-15 6-21 4-7 11-11 19-13h336c7 1 14 4 19 10 6 6 8 13 8 21v324c1 8-1 16-6 22-4 6-11 11-19 12h-58c-7 0-14 2-20 7-6 5-9 12-9 19-1 8 2 15 7 20 5 6 11 9 19 10h59c22-1 42-10 58-26 15-15 24-36 25-58v-327c1-22-7-44-22-60-14-17-35-27-57-29h-338c-21 0-42 10-58 25-15 15-24 36-25 58v327c-1 22 7 44 22 61 14 16 35 27 57 29h60z" horiz-adv-x="1000" />

<glyph glyph-name="025-scroll" unicode="&#xe82a;" d="M525 675l5-4 166-166c4-4 7-9 9-14 2-5 3-10 3-16 0-5-1-11-3-16-2-5-5-10-9-14-7-7-17-11-27-12-10 0-20 3-28 9l-4 3-137 138-137-138c-7-7-17-11-27-12-10 0-20 3-28 9l-4 3c-7 8-12 17-12 27-1 10 2 20 9 28l3 5 166 166c8 7 17 12 27 12 10 1 20-2 28-8z m-217-417c8 6 18 9 28 9 10-1 20-5 27-12l137-137 137 137 4 3c8 6 18 9 28 9 10-1 20-5 27-12 4-4 7-9 9-14 2-5 3-10 3-16 0-5-1-11-3-16-2-5-5-10-9-14l-166-166-5-3c-8-7-18-10-28-9-10 0-19 5-27 12l-166 166-3 5c-7 8-10 18-9 28 0 10 5 19 12 27l4 3z" horiz-adv-x="1000" />

<glyph glyph-name="028-filter-funnel" unicode="&#xe82b;" d="M804 623l-248-298-3-4c-7-9-10-19-10-30v-206l-85 31v182c-2 11-6 21-14 30l-247 295h607z m18 60h-644c-10 0-20-3-29-8-8-5-15-13-19-22l-2-5c-3-8-4-17-2-26 2-8 5-17 11-24l258-309v-187c0-9 3-18 8-25 5-7 13-13 21-16l123-42c7-2 14-3 21-2 8 1 14 4 20 9l3 2c9 8 14 19 14 31v230l258 309c6 8 10 17 12 27 1 9-1 19-5 28-4 9-10 17-19 22-8 6-18 8-29 8z" horiz-adv-x="1000" />

<glyph glyph-name="026-mail" unicode="&#xe82c;" d="M791 550c6-6 8-14 8-22 0-8-4-16-9-22l-3-3-265-209c-6-4-13-7-20-7-7-1-14 1-20 5l-4 2-264 209c-7 6-12 13-13 22-2 8 1 17 6 24 5 7 13 12 22 13 9 2 18 0 25-5l4-2 243-192 243 192c7 5 16 8 25 7 8-1 17-5 22-12z m17 67h-617c-5 0-10-1-15-3-4-2-9-5-12-9-4-3-7-8-9-12-1-5-2-10-2-15v-456c0-5 1-10 2-15 2-4 5-8 9-12 3-4 8-7 12-9 5-2 10-3 15-3h617c6 0 11 1 16 3 4 2 9 5 12 9 4 3 7 8 9 12 2 5 2 10 2 15v456c0 5 0 10-2 15-2 4-5 9-9 12-3 4-8 7-12 9-5 2-10 3-16 3z m0 66c15 0 29-2 42-8 13-5 25-13 35-23 11-9 18-21 24-34 5-13 8-26 8-40v-456c0-14-3-27-8-40-6-13-13-25-24-34-10-10-22-18-35-23-13-6-27-8-42-8h-617c-14 0-28 3-41 8-13 5-25 13-35 23-11 10-18 21-24 34-5 13-8 26-8 40v456c0 14 3 27 8 40 6 13 13 25 24 34 10 10 22 18 35 23 13 6 27 8 41 8h617z" horiz-adv-x="1000" />

<glyph glyph-name="029-filter" unicode="&#xe82d;" d="M125 558h750m-750-208h750m-750-208h750" horiz-adv-x="1000" />

<glyph glyph-name="030-info" unicode="&#xe82e;" d="M500 593c10 0 20-3 29-9 9-5 15-14 19-23 4-10 5-20 3-30-2-10-7-20-14-27-7-7-17-12-27-14-10-2-20-1-30 3-9 4-18 11-23 19-6 9-9 19-9 29 0 14 5 27 15 37 10 10 23 15 37 15z m16-174c8 1 17-3 23-9 7-6 11-14 11-23v-211h54c9 1 18-2 25-8 7-6 11-15 12-24 1-9-3-18-9-25-6-7-14-11-24-12h-177c-10-1-19 3-26 9-6 6-11 14-11 24-1 9 2 18 8 25 7 7 15 11 24 11h53v171h-29c-9 0-18 3-24 9-6 6-10 14-11 23v4c0 9 3 18 9 24 6 7 14 10 23 11h70l-1 1z m-16 275c-68 0-134-20-191-58-56-38-101-92-127-154-26-63-32-132-19-199 13-67 46-128 94-176 48-48 109-81 176-94 67-13 136-7 199 19 62 26 116 71 154 127 38 57 58 123 58 191 0 91-37 179-101 243-64 64-152 101-243 101z m0 73c82 0 163-25 232-71 68-45 121-110 153-186 32-77 40-160 24-241-16-81-56-155-114-214-59-58-133-98-214-114-80-16-164-8-240 24-77 32-142 85-187 154-46 68-71 149-71 231 0 111 44 217 122 295 79 78 185 122 295 122z" horiz-adv-x="1000" />

<glyph glyph-name="031-laptop" unicode="&#xe82f;" d="M806 609h-612c-5 0-9-2-13-5-3-3-5-7-5-12v-410c0-4 2-9 5-12 4-3 8-5 13-5h612c5 0 9 2 13 5 3 3 5 8 5 12v410c0 5-2 9-5 12-4 3-8 5-13 5z m-612-518c-25 0-49 9-66 27-18 17-28 40-28 64v410c0 24 10 47 28 65 17 17 41 26 66 26h612c25 0 49-9 67-26 17-18 27-41 27-65v-410c0-24-10-47-27-64-18-18-42-27-67-27h112c10 0 20-3 27-9 8-7 13-16 13-26 1-10-2-19-9-27-7-7-16-12-26-12h-5-836c-10-1-20 2-27 9-8 6-13 16-13 25-1 10 3 20 9 27 7 8 16 12 26 13h5 112z" horiz-adv-x="1000" />

<glyph glyph-name="032-home" unicode="&#xe830;" d="M792 395v-376c-1 0-1-1-1-1-1-1-1-1-2-1h-192c-1 0-1 0-2 1 0 0 0 1-1 1v157c1 25-6 48-21 67-14 19-34 33-56 38-14 2-28 2-42-2-13-4-26-10-36-20-11-9-20-21-26-34-6-14-9-28-9-43v-163c0 0 0-1 0-1-1-1-1-1-2-1h-192c0 0-1 0-1 1 0 0 0 1 0 1v376c-1 0-1 0-1 1 0 0 0 0 1 1l257 272c4 4 10 8 15 11 6 2 12 3 19 3 6 0 12-1 18-3 6-3 11-7 16-11l258-272c0-1 0-1 0-1 0-1 0-1 0-1z" horiz-adv-x="1000" />

<glyph glyph-name="033-home-fill" unicode="&#xe831;" d="M792 395v-376c-1 0-1-1-1-1-1-1-1-1-2-1h-192c-1 0-1 0-2 1 0 0 0 1-1 1v157c1 25-6 48-21 67-14 19-34 33-56 38-14 2-28 2-42-2-13-4-26-10-36-20-11-9-20-21-26-34-6-14-9-28-9-43v-163c0 0 0-1 0-1-1-1-1-1-2-1h-192c0 0-1 0-1 1 0 0 0 1 0 1v376c-1 0-1 0-1 1 0 0 0 0 1 1l257 272c4 4 10 8 15 11 6 2 12 3 19 3 6 0 12-1 18-3 6-3 11-7 16-11l258-272c0-1 0-1 0-1 0-1 0-1 0-1z" horiz-adv-x="1000" />

<glyph glyph-name="034-find-agent-fill-localization" unicode="&#xe832;" d="M500 489c11 0 22-3 31-9 9-7 16-15 20-25 5-11 6-22 4-32-3-11-8-21-16-29-7-8-17-13-28-15-11-2-22-1-32 3-10 4-19 11-25 21-6 9-10 19-10 30 0 15 6 29 17 40 10 10 24 16 39 16z m0 55c-22 0-43-6-62-18-18-12-32-30-41-50-8-20-10-43-6-64 4-22 15-42 30-57 16-16 36-26 57-31 22-4 44-2 65 7 20 8 37 22 49 41 13 18 19 39 19 61 0 30-12 58-32 79-21 21-49 32-79 32z m0 139c139 0 250-102 250-227 0-60-28-139-85-236-38-64-79-125-125-184-5-6-11-11-18-14-7-4-14-5-22-5-8 0-15 1-22 5-7 3-13 8-18 14-46 59-87 120-125 184-57 96-85 176-85 236 0 125 111 227 250 227z" horiz-adv-x="1000" />

<glyph glyph-name="035-find-agent-localization" unicode="&#xe833;" d="M500 489c-11 0-22-3-31-9-9-7-16-15-20-25-4-11-6-22-3-32 2-11 7-21 15-29 8-8 17-13 28-15 11-2 22-1 32 3 10 4 19 11 25 21 6 9 10 19 10 30 0 15-6 29-17 40-10 10-24 16-39 16z m0 55c22 0 44-6 62-18 18-12 32-30 41-50 8-20 10-43 6-64-4-22-15-42-30-57-16-16-36-26-57-31-22-4-44-2-64 7-21 8-38 22-50 41-13 18-19 39-19 61 0 30 12 58 32 79 21 21 50 32 79 32z m0 84c-108 0-194-79-194-174 0-88 78-227 181-363l13-17 13 17c101 133 178 268 181 357v6c0 95-86 174-194 174z m0 55c139 0 250-102 250-229 0-111-90-264-208-416-5-7-11-12-19-16-7-3-15-5-23-5-8 0-16 1-23 5-7 4-14 9-19 15-118 153-208 306-208 417 0 127 113 229 250 229z" horiz-adv-x="1000" />

<glyph glyph-name="036-microphone" unicode="&#xe834;" d="M500 300c33 0 65 14 88 39 24 25 37 59 37 94v200c0 37-27 50-62 50h-125c-35 0-63-13-63-50v-200c0-35 13-69 37-94 23-25 55-39 88-39z m-62 300c0 18 15 17 31 17h62c18 0 32 0 32-17v-167c0-17-7-34-19-47-11-12-27-19-44-19-16 0-32 7-44 19-12 13-18 30-18 47v167z m93-431v-86h63c4 1 7 1 11 0 4-2 7-4 10-6 3-3 6-6 7-10 2-3 3-8 3-12 0-17-14-38-31-38h-188c-8 1-16 5-22 12-6 7-9 16-9 25v4c0 19 15 25 31 25h63v86c-94 12-203 80-219 219-2 19 13 29 31 29 8 1 15-1 21-6 6-5 10-12 11-19 25-228 349-224 374 4 2 16 16 21 32 21 18 0 33-10 31-29-15-138-94-207-219-219z" horiz-adv-x="1000" />

<glyph glyph-name="037-pharmacy" unicode="&#xe835;" d="M475 663h50v-169c0-7 1-14 5-20 3-5 8-10 13-14l4-2c5-2 11-3 17-3 6 0 11 2 16 5l166 69 25-45-136-100c-6-3-11-8-14-14-3-6-5-13-5-20v-5c1-6 3-11 6-16 3-5 7-9 12-12l137-101-25-44-166 69c-5 3-12 5-18 5-7 0-13-2-19-5l-4-3c-5-3-8-8-11-14-2-5-4-11-4-17v-169h-49v169c0 7-1 14-5 20-3 5-8 10-13 14l-4 2c-6 2-11 3-17 3-6-1-12-2-17-5l-165-69-23 44 134 101c6 3 11 8 14 14 3 6 5 12 5 19v5c-1 6-3 11-6 16-3 5-7 9-12 12l-135 101 23 44 166-69c5-3 12-5 18-5 7 0 13 2 19 5l4 3c5 4 8 8 11 14 2 5 4 11 4 17l-1 170z m-2 62h-5c-14-1-28-8-38-19-10-11-15-26-15-41v-130l-134 50c-13 8-29 10-43 6-15-5-27-15-35-28l-30-51c-7-14-8-30-4-45l2-5c5-13 13-24 25-31l104-81-104-81c-7-4-12-9-17-15-4-6-8-13-10-21-2-7-2-15-1-23 1-7 3-15 7-22l30-51 2-4c8-12 21-21 35-24 13-3 28-1 41 6l133 50v-130c0-15 6-31 17-42 10-11 25-18 40-18h59c15 1 29 8 38 19 10 11 16 26 16 41v130l134-49c6-4 13-7 21-8 7-1 15-1 22 1 7 2 14 6 20 11 6 5 11 10 14 17l29 51c7 14 9 30 5 45v5c-4 14-13 25-25 32l-106 80 105 81c6 4 12 9 16 15 5 7 8 14 10 21 2 8 2 15 2 23-1 8-4 15-8 22l-28 51-2 4c-9 12-21 21-35 24-14 4-28 1-41-6l-134-50v130c0 8-1 16-4 23-3 7-7 14-12 19-6 6-12 11-19 14-7 3-15 4-22 4h-55z" horiz-adv-x="1000" />

<glyph glyph-name="038-motorbike" unicode="&#xe836;" d="M616 725c17 0 32-7 44-19 12-13 18-30 18-47 1-9-1-17-4-25-3-8-8-16-14-22-6-6-12-11-20-14-8-4-16-5-24-5-17 0-33 7-45 19-11 13-18 29-18 47 0 17 7 34 18 47 12 12 28 19 45 19h0z m-64-139l2-4 57-109h74c8 0 15-3 21-8 6-5 9-13 10-21v-4c0-8-2-16-7-22-6-6-13-10-20-11h-95c-5 0-10 1-14 4-5 2-9 5-12 10l-1 3-47 86-78-91 75-53c4-2 7-6 10-10 2-4 3-8 4-13v-155c0-8-4-16-9-22-6-5-13-9-21-9-8-1-15 2-21 7-6 6-10 13-11 21v136l-92 63c-3 2-7 5-9 9-2 4-4 8-5 12-1 5 0 10 0 14 1 4 3 9 6 12l2 4 132 153c4 4 7 7 12 8 4 2 9 3 13 3 5 0 9-2 13-4 4-2 8-6 11-9z m-271-305h-5c-25-1-49-12-67-32-18-19-27-45-27-72 0-27 11-53 29-72 18-19 43-29 68-29 26 0 50 10 68 29 19 19 29 45 29 72 1 27-9 53-27 72-17 20-42 31-67 32h-1z m438 0h-6c-26-1-50-12-68-32-17-19-27-45-27-72 1-27 11-53 29-72 18-19 43-29 68-29 26 0 50 10 69 29 18 19 28 45 29 72 0 27-10 53-27 72-18 20-42 31-68 32h1z m-438 66c31 0 61-9 87-28 26-18 46-44 58-74 11-30 15-63 9-95-6-32-21-62-43-85-22-23-50-39-80-45-31-6-62-3-90 9-29 13-53 34-71 61-17 27-26 59-26 92 0 22 4 43 12 63 8 20 19 39 34 54 29 31 69 48 110 48z m438 0c31 0 61-9 87-28 25-18 45-44 57-74 12-30 15-63 9-95-6-32-21-62-43-85-22-23-49-39-80-45-30-6-61-3-90 9-29 13-53 34-70 61-17 27-26 59-26 92 0 22 4 43 11 63 8 20 20 39 34 54 30 31 69 48 111 48z" horiz-adv-x="1000" />

<glyph glyph-name="039-smartphone" unicode="&#xe837;" d="M385 663c-9-1-17-6-23-13-6-7-10-16-10-25v-550c0-5 1-10 3-14 2-5 5-9 8-12 3-4 7-7 12-9 4-1 9-2 14-2h222c10 0 19 4 26 11 7 7 11 16 11 26v550c0 10-4 20-11 27-7 7-16 11-26 11h-18c-3-10-9-18-17-24-8-6-17-10-27-11h-94c-9 1-19 4-27 9-8 5-15 13-19 21l-2 5h-22z m226 62c26 0 51-10 69-29 18-19 28-44 28-71v-550c0-26-10-52-28-71-18-19-43-29-69-29h-222c-26 0-51 10-69 29-18 19-28 45-28 71v550c0 27 10 52 28 71 18 19 43 29 69 29l222 0z" horiz-adv-x="1000" />

<glyph glyph-name="040-phone" unicode="&#xe838;" d="M286 620l11 5 1-2 7-7c25-28 47-60 64-93l11-23c3-7 3-8 0-13l-7-9c-4-5-13-17-15-21-6-8-9-16-11-25-2-10-2-19 0-28 17-48 45-91 82-126 35-36 78-64 125-80 9-2 19-2 28 0 9 1 18 5 26 10l8 6 14 11c16 12 10 13 33 0l4-3c36-18 69-40 100-66l6-6 3-3v-2c-5-12-11-23-18-33-9-15-22-27-38-35-23-11-56-7-126 33-71 38-135 86-192 143-58 56-106 120-143 191-17 28-29 59-35 91-3 12-2 24 2 35 8 15 20 28 36 36 8 5 16 10 24 14z m118-193l3 4 12 15c25 35 25 49 3 95-20 41-46 80-77 115l-8 8c-16 15-26 19-41 19-4 0-7-1-11-2l-5-3-7-3c-14-6-28-14-42-22-24-14-43-35-56-60-17-38-9-97 35-175 40-76 91-145 153-204 60-61 129-112 204-153 85-47 135-53 177-34 25 12 45 31 59 55 7 11 14 23 19 34l7 17c3 5 4 10 4 15 2 17-5 27-28 49-32 28-68 53-107 73l-7 4c-44 22-58 23-91 0l-16-12-7-5c-2-2-4-3-6-3-2-1-4-1-6 0-37 14-71 36-98 65-28 27-51 60-65 97-1 2-1 4 0 6 0 2 1 4 2 5z" horiz-adv-x="1000" />

<glyph glyph-name="041-update" unicode="&#xe839;" d="M754 371c-5 0-10-1-15-3-4-2-8-5-12-9-3-3-6-8-7-13-2-5-3-10-3-15 0-46-12-91-36-129-23-38-57-68-96-86-40-17-83-22-125-13-41 9-80 31-110 63-30 32-51 73-59 118-9 45-5 92 11 134 16 42 44 79 79 104 35 26 76 40 119 41 28-1 56-7 81-20 25-13 48-32 66-55h-115c-11 0-20-5-27-13-6-8-10-19-9-30 0-11 5-21 13-28 7-7 17-11 27-10h186c9 0 18 5 24 12 6 7 9 17 9 27v202c0 9-4 18-11 25-7 7-16 10-25 10h-5c-9 0-17-5-23-12-6-7-10-17-10-27v-75c-49 49-114 76-181 75-58 0-114-18-162-52-48-35-85-84-107-141-22-58-28-121-17-182 11-61 39-116 80-160 41-44 93-74 149-86 57-12 115-6 169 18 53 23 98 64 131 115 32 52 49 112 49 175 0 5-1 10-3 16-2 5-4 9-8 13-3 4-8 7-13 9-4 2-9 3-14 2z" horiz-adv-x="1000" />

<glyph glyph-name="042-search" unicode="&#xe83a;" d="M864 64l-186 186 6 9c40 64 55 139 43 213-13 74-52 140-110 187-59 47-132 70-207 66-74-5-145-37-197-90-53-53-84-124-88-199-3-74 21-148 68-206 47-58 114-97 188-108 73-12 149 4 212 45l8 5 185-186c7-7 17-11 28-11 10 0 20 4 27 11l23 23c7 7 11 17 11 28 0 10-4 20-11 27z m-209 360c0-45-13-89-38-126-25-38-60-67-102-84-41-17-87-22-131-13-43 9-84 30-116 62-31 32-53 72-62 116-9 44-4 90 13 131 17 42 46 77 83 102 37 25 81 39 126 39 30 0 59-6 87-17 27-11 52-28 74-49 21-21 38-47 49-74 11-28 17-57 17-87z" horiz-adv-x="1000" />

<glyph glyph-name="043-navigation" unicode="&#xe83b;" d="M652 349l-410-18c-9-1-18-5-24-12-6-7-10-16-10-25v-198c0-7 2-13 5-18 3-5 7-10 13-13 6-4 13-6 20-7 5 0 10 2 15 4l591 253c3 2 7 3 10 6l5 5c5 7 8 15 8 23 0 8-3 16-8 23-2 2-4 4-6 5-3 3-6 5-9 6l-591 256c-6 2-12 3-18 3-6-1-12-3-17-6-6-4-10-8-13-14-3-5-5-11-5-17v-199c0-9 4-18 10-25 6-7 15-11 24-12l410-18c2 0 3 0 3-2 0-1-2 0-3 0z" horiz-adv-x="1000" />

<glyph glyph-name="044-timer" unicode="&#xe83c;" d="M386 489l159-94c7-5 13-11 17-18 5-7 8-15 10-24 1-8 1-16-1-25-2-8-5-16-10-23-5-7-11-13-18-17-7-5-15-8-24-9-8-2-17-2-25 0-8 2-16 5-23 10-6 5-12 10-16 16l-105 157c-3 4-5 10-5 15 0 6 2 11 5 16 11 10 29-1 36-4z m124 278c94-2 186-37 259-98 72-61 122-146 140-239 18-93 4-190-40-274-44-84-116-150-203-188-87-38-185-45-276-20-92 25-172 81-228 158-55 77-83 171-78 266 5 95 42 185 105 256 3 3 7 7 11 9 4 2 9 3 14 4 4 0 9-1 13-2 5-1 9-4 13-7 3-3 6-7 8-11 2-5 3-9 3-14 0-5 0-9-2-14-2-4-5-8-8-11-52-58-82-132-88-209-5-77 16-154 60-218 43-64 107-112 181-136 74-24 153-22 226 5 73 27 134 77 175 143 41 66 58 144 50 221-9 77-43 149-97 205-54 55-125 91-202 101h-11v-101c0-8-3-17-9-23-6-7-14-11-22-12h-4c-9 0-17 3-23 9-7 6-11 13-12 22v134c0 6 1 12 3 17 3 5 6 10 10 14 4 4 9 8 15 10 5 2 11 3 17 3z" horiz-adv-x="1000" />

<glyph glyph-name="045-globe" unicode="&#xe83d;" d="M662 657l2-3c10-16 18-32 26-48 9 4 18 10 27 15-17 14-36 26-55 36z m-324 0c-19-10-37-21-55-34 9-6 18-11 28-16 8 17 17 34 27 50z m197 31v-127c30 3 60 9 90 18-17 45-49 84-90 109z m-70 0c-41-25-73-64-90-109 29-9 60-15 90-18v127z m302-116l8 4c-20-13-40-24-61-34 16-51 25-104 27-157h104c-7 68-34 133-78 187z m-117-58l-11-4c-34-10-69-16-104-18v-107h136c-2 43-9 87-21 129z m-300 0v-4c-11-41-19-83-21-125h136v106c-39 3-77 11-115 23v0z m-118 57l-5-6c-41-52-66-114-72-180h104c2 53 11 105 26 156-18 9-36 19-53 30z m439-256h-136v-106c39-3 77-10 114-22 12 42 19 85 22 128z m-206 0h-136c2-43 10-86 21-128 38 12 76 19 115 22v106z m382 0h-104c-2-52-11-104-26-154 18-10 36-20 53-31 44 53 70 117 77 185z m-588 0h-104c7-68 34-133 78-186l-8-5c20 13 40 25 61 36-15 51-24 103-27 155z m431-220l-4-8c-7-15-15-30-24-44 19 10 38 22 55 35-9 6-18 12-27 16v1z m-380 0c-9-5-17-10-26-15 17-13 36-25 55-35-10 16-20 32-29 49v1z m225 44v-127c41 25 73 64 90 109-30 9-60 15-90 18z m-154-16l-7-2c17-46 49-84 91-110v128c-28-2-56-8-83-16h-1z m119 644c82 0 163-25 232-71 68-45 121-110 153-186 32-77 40-160 24-241-16-81-56-155-114-214-59-58-133-98-214-114-80-16-164-8-240 24-77 32-142 85-187 154-46 68-71 149-71 231 0 111 44 217 122 295 79 78 185 122 295 122z" horiz-adv-x="1000" />

<glyph glyph-name="046-control" unicode="&#xe83e;" d="M800 474h-4l-157-82v-125l157-81c5-2 11-4 16-4 9 0 17 3 23 9 7 5 11 13 12 21v230c0 6-1 11-4 16-4 8-11 13-19 16-8 3-16 3-24 0z m-328 65h-222c-27 0-52-10-72-27-19-18-31-42-32-68v-223c0-26 10-51 28-70 18-19 43-30 70-32h228c27 0 52 10 72 28 19 18 31 42 32 68v223c0 26-11 52-30 71-20 19-46 30-74 30z m28 61c35 0 69-13 95-36 26-24 41-56 44-91l179 82c8 4 17 6 26 6 9 0 19-1 27-4 9-3 17-8 23-14 7-6 12-14 16-22 4-9 7-19 7-29v-329c0-18-8-35-21-48-13-12-30-19-49-19-10 0-20 2-29 6l-179 83c-3-34-18-67-44-90-26-24-60-37-95-37h-278c-37 0-72 15-98 40-26 25-41 60-41 96v271c0 36 15 70 41 95 26 26 61 40 98 40h278z" horiz-adv-x="1000" />

<glyph glyph-name="048-plane" unicode="&#xe83f;" d="M494 419l-72 162 156-192c2-7 6-13 12-17 5-5 12-7 19-7l108 3h17c53 0 80-12 80-18 0-6-25-17-72-18h-34l-99 2c-5 1-11 0-16-2-5-2-9-5-12-9l-158-197 64 153c3 5 4 11 4 17-1 6-3 12-6 17-3 5-7 10-12 12-5 3-11 5-17 5l-184 4h-5c-6 0-12-2-17-5-6-3-10-7-14-12l-31-39 16 54v2c3 11 3 22 0 32v2l-16 54 37-40c5-6 10-10 16-13 6-3 13-4 19-4l187 3c6 0 12 1 17 4 5 3 9 7 12 12 3 5 5 11 5 17 0 6-1 13-4 18z m-140 264h-3c-5 0-10-2-14-5-4-3-8-6-10-11-3-4-4-9-4-15 0-5 1-10 3-14l94-207-136-2-51 64c-5 5-12 10-20 12-7 3-15 3-23 2h-30c-8 1-16-2-22-8-6-5-10-13-11-21-1-6-1-11 0-17l31-111-31-112c-2-5-2-11-2-17 1-6 3-11 7-16 3-4 8-8 13-10 5-3 11-4 17-3h31c7 0 14 1 20 4 6 3 12 8 16 14l48 60 135-3-86-205c-2-5-3-10-3-16 1-5 3-10 5-15 3-4 7-8 12-10 4-3 9-4 14-4h41 5c10 1 20 5 27 13l193 239 97-2h16c84 0 142 26 142 82 0 56-54 81-134 82h-20l-101-2-190 237c-4 5-9 9-15 12-5 3-12 5-18 5h-43z" horiz-adv-x="1000" />

<glyph glyph-name="049-sound-off" unicode="&#xe840;" d="M414 65c12-4 25-7 37-7 13 0 26 3 37 7 18 7 33 18 44 32 10 14 16 31 16 48v414c0 17-6 34-16 48-11 15-26 26-44 32-17 7-37 9-56 5-18-3-35-11-49-23l-81-73c-4-4-9-6-15-6h-65c-13 0-26-2-38-6-12-5-22-11-31-20-9-8-16-18-21-28-5-11-7-23-7-34v-205c0-23 10-45 28-62 18-16 43-25 69-25h65c6 0 11-2 15-5l81-73c9-8 20-15 31-19z m-201 408c3 1 6 2 9 2h65c13-1 26 2 37 6 12 4 23 11 31 19l82 72c2 3 6 5 10 6 4 1 9 0 13-1 3-2 7-4 9-7 2-3 3-7 3-11v-416c0-3-1-7-3-10-2-3-6-5-9-7-4-1-9-2-13-1-4 1-8 3-10 5l-82 73c-8 8-19 14-31 19-11 4-24 6-37 6h-65c-6 0-11 2-15 6-4 3-7 8-7 13v207c0 3 1 5 2 8 0 2 2 4 4 6 2 2 4 4 7 5z m439-12c-14 10-33 8-44-5-11-14-9-34 5-44l75-60-75-59c-14-11-16-31-5-44 11-14 30-16 44-5l86 68 86-68c14-11 34-9 44 5 11 13 9 33-5 44l-75 59 75 60c14 10 16 30 5 44-10 13-30 15-44 5l-86-69-86 69z" horiz-adv-x="1000" />

<glyph glyph-name="050-sound-on" unicode="&#xe841;" d="M611 58c-25 0-49 9-67 26l-80 72c-4 3-9 5-15 5h-62c-25 0-49 9-67 26-18 16-28 38-28 60v204c-1 11 2 23 6 33 5 11 12 21 21 29 9 8 20 15 31 19 12 5 25 7 37 7h64c5 0 10 2 14 5l80 72c14 13 31 21 49 24 19 3 38 2 55-5 18-6 33-17 43-32 11-14 16-30 16-47v-412c0-17-6-33-16-47-11-15-26-26-44-32-12-4-24-7-37-7z m-224 413c-3 1-6 0-9-1-3 0-5-2-8-4-2-2-3-4-4-7-1-2-2-5-2-8v-205c0-5 3-10 7-14 4-3 9-5 14-5h66c12 0 25-2 36-7 12-4 22-10 31-18l80-72c3-4 7-6 11-7 4-1 9-1 13 1 4 1 8 4 10 7 3 4 4 8 3 12v413c1 4 0 8-3 11-2 4-6 6-10 8-4 1-9 1-13 0-4-1-8-3-11-6l-80-72c-9-8-19-15-31-19-11-4-24-7-36-7h-64z" horiz-adv-x="1000" />

<glyph glyph-name="051-arrow" unicode="&#xe842;" d="M443 113l236 176c9 7 16 16 21 27 6 10 8 22 8 34 0 12-2 24-8 34-5 11-12 20-21 27l-236 176c-11 7-23 12-36 13-12 1-25-2-36-8-11-7-21-16-28-28-6-11-10-25-10-38v-352c0-13 4-27 10-38 7-12 17-21 28-28 11-6 24-9 36-8 13 1 25 6 36 13z" horiz-adv-x="1000" />

<glyph glyph-name="058-side-car-1" unicode="&#xe843;" d="M332 558l-40-125h119l6 125h-85z m378 0l40-125h-250l7 125h203z m-168-291c23 0 41 18 41 41 0 23-18 42-41 42-23 0-42-19-42-42 0-23 19-41 42-41z m-250 0c23 0 41 18 41 41 0 23-18 42-41 42-23 0-42-19-42-42 0-23 19-41 42-41z m125 41v-41m335 192l-30 88c-8 28-26 52-50 69-24 17-53 26-83 26h-247c-29 1-58-8-82-25-24-17-42-42-50-69l-35-89-27-17c-19-12-35-28-47-47-11-19-17-40-18-62v-107c0-14 5-28 13-39 9-12 21-20 35-25v-41c0-17 8-34 21-45 13-12 30-18 48-18h80c17 0 35 6 48 18 13 11 21 28 21 45v16h303v-16c1-17 8-34 21-45 13-12 30-18 48-18h82c18 0 35 6 48 18 13 11 21 28 21 45v41c13 5 25 14 33 25 7 11 12 24 12 37v146c2 31-141 80-165 89z m81-171c0-12 4-25 11-35 7-10 16-18 28-23 11-5 24-6 36-4 12 3 23 9 32 17 9 9 15 20 17 32 3 13 1 25-3 37-5 11-13 21-24 28-10 7-22 10-35 10-16 0-32-6-43-18-12-12-19-28-19-44z" horiz-adv-x="1000" />

<glyph glyph-name="059-bike" unicode="&#xe844;" d="M763 261l-108 245 65 36c2 1 4 3 4 6 1 2 0 4-1 6-1 1-1 2-2 3-1 0-3 1-4 1-1 0-2 0-3 0-1 0-3 0-4-1l-70-40c-1-1-3-2-3-4-1-1-1-3-1-5-1-1-1-3 0-5l6-20-255-8-10 29h20c3 0 7 2 9 4 3 3 4 6 4 9 0 4-1 7-4 10-2 2-6 4-9 4h-78c-4 0-7-2-10-4-2-3-4-6-4-10 0-3 2-6 4-9 3-2 6-4 10-4h38l13-29-48-79m378 9c-31-12-57-32-76-58-19-26-30-57-31-89 0-31 10-61 28-86 18-26 44-45 73-57 30-11 62-14 94-8 31 7 60 22 82 44 22 21 38 49 44 80 6 30 2 61-10 89-12 29-33 53-60 70-26 17-57 26-89 26-19-1-38-5-56-12m-240-169h-227l84 145m76 93l239 8-172-247m-269 170c-30-13-56-33-75-58-19-26-30-57-32-88 0-42 17-82 48-111 30-30 71-47 114-47 43 2 82 20 112 49 29 29 45 68 45 109 0 41-16 80-45 109-30 30-69 47-112 49-19-1-38-5-55-12z m185 154l83-333" horiz-adv-x="1000" />

<glyph glyph-name="060-box-coin" unicode="&#xe845;" d="M712 244h-7v53h100c8 0 22-2 32-13 8-10 8-21 8-24 0 0 0 0 0-1v-5c0 0 0 0 0 0 0-1 0-4-1-8 0-3-1-8-5-14-8-14-23-17-34-17h-93v29z m16-40l0 28 99 2h0c9 0 23-3 32-15 7-9 7-20 7-23 0 0 0 0 0 0v-5c0 0 0 0 0-1 0-1 0-4 0-7-1-3-2-9-6-15-9-13-24-15-33-15l-101-1-1 52 3 0z m99 1c0 0 0 0 0 0l0 0z m-112-68h-32v-52h134c8 0 22 2 31 14 4 6 5 11 6 15 0 3 0 5 0 6 0 1 0 1 0 1v2c0 0 0 0 0 0 0 2 1 12-5 21-9 12-23 15-32 15h-102v-22z m102 0c0 0 0 0 0 0l0 0z m-138-78v12c0 0 0 0 0 0 0 0 0 0 0 0 0 0 0 0 0 0v24h155c5 0 16-1 26-7 13-8 15-20 15-27v-5c0-6-1-16-9-24-9-10-21-13-32-13h-155c-2 0-9 0-15 2-4 1-10 4-14 10-4 6-5 12-5 17 0 3 1 6 1 7 0 0 0 1 0 1v0c0 3 0 6 1 9l32-6z m-343 526c10 9 23 14 37 14h53c15 0 28-11 28-26 0-14-13-26-28-26h-46l31-77c6-14-1-29-16-34-14-5-30 2-36 15l-36 90c-2 3-2 6-2 10 0 12 5 25 15 34z m216-12c0 15 12 26 27 26h61c0 0 0 0 0 0 7 0 13-1 20-3 6-3 12-6 16-11 5-5 9-10 12-16 2-6 3-12 3-19 0-3 0-6-2-9l-37-90c-6-14-22-20-36-15-14 5-21 20-16 34l32 77h-53c-15 0-27 12-27 26z m139-306c-16 45-45 85-83 116l36 40c45-37 80-85 100-138 18-45 20-111-12-167-33-58-100-101-208-101h-41c-108-1-175 42-208 101-32 56-30 123-12 169 20 52 54 99 98 136l37-40c-38-31-66-70-82-114l-1-1 0 0c-13-34-15-84 9-126 22-39 68-73 159-73l0 0 41 0c91 0 137 35 159 73 23 42 22 92 9 125l0 0-1 0z m-240 322l22-70c4-14-4-29-19-33-14-4-30 4-34 18l-25 82c-1 2-1 5-1 7 0 13 5 25 15 34 9 10 23 15 36 15h114c0 0 0 0 0 0 13 0 27-5 36-14 10-9 15-22 16-35 0-2-1-4-1-6l-20-80c-4-14-19-23-34-20-15 4-24 18-20 32l18 70h-103z m-134-130c10 7 22 11 36 11h302c13 0 26-4 36-11 10-6 19-18 19-34v-2c0-15-9-27-19-34-10-7-23-11-36-11h-302c-13 0-26 4-36 11-10 7-20 18-20 34v2c0 0 1 1 1 1 0 15 10 26 19 33z" horiz-adv-x="1000" />

<glyph glyph-name="061-heath-cross" unicode="&#xe846;" d="M394 611v-125c0-8-3-15-9-21-6-5-13-9-21-9h-125c-4 0-8-1-12-2-4-2-7-4-10-7-3-3-5-6-6-10-2-4-3-8-3-12v-150c0-4 1-8 3-12 1-4 3-7 6-10 3-3 6-5 10-7 4-1 8-2 12-2h125c8 0 15-3 21-9 6-6 9-13 9-21v-125c0-4 1-8 2-12 2-4 4-7 7-10 3-3 6-5 10-6 4-2 8-3 12-3h150c4 0 8 1 12 3 4 1 7 3 10 6 3 3 5 6 7 10 1 4 2 8 2 12v125c0 8 4 15 9 21 6 6 13 9 21 9h125c4 0 8 1 12 2 4 2 7 4 10 7 3 3 5 6 6 10 2 4 3 8 3 12v150c0 4-1 8-3 12-1 4-3 7-6 10-3 3-6 5-10 7-4 1-8 2-12 2h-125c-8 0-15 4-21 9-5 6-9 13-9 21v125c0 4-1 8-2 12-2 4-4 7-7 10-3 3-6 5-10 6-4 2-8 3-12 3h-150c-4 0-8-1-12-3-4-1-7-3-10-6-3-3-5-6-7-10-1-4-2-8-2-12z" horiz-adv-x="1000" />

<glyph glyph-name="062-life-vest-1" unicode="&#xe847;" d="M423 683l77-173v-448c-2-13-9-24-19-32-9-9-22-13-35-13h-160c-21 0-40 8-55 22-14 14-23 33-23 53v285c0 0 127-15 90 122-13 54-30 107-50 159l175 25z m155 0l-78-173v-448c2-13 9-24 19-32 9-9 22-13 35-13h160c21 0 40 8 55 22 14 14 23 33 23 53v285c0 0-127-15-89 122 12 54 29 107 49 159l-174 25z m5 0l-83-166-83 166c10-10 23-18 37-24 15-5 30-8 46-8 16 0 31 3 45 8 14 6 27 14 37 24m-82-541h292v166h-292v-166z m0 166h-292v-166h292v166z" horiz-adv-x="1000" />

<glyph glyph-name="063-suitcase" unicode="&#xe848;" d="M775 600h-550c-32 0-58-28-58-61v-419c0-34 26-62 58-62h550c32 0 58 28 58 62v419c0 33-26 61-58 61z m-328-333h-192c-12 0-23 2-34 7-11 4-20 11-28 20-9 9-15 20-20 31-4 12-6 25-6 37v175c0 16 6 33 17 44 10 12 25 19 40 19h551c7 0 15-1 22-4 7-3 14-8 19-14 6-6 10-13 13-21 3-8 4-16 4-24v-175c0-12-2-25-6-36-5-12-11-22-19-31-8-9-18-16-28-21-11-5-22-7-33-7h-201m41 375c6 0 10-1 15-3 5-1 9-3 12-6 4-3 7-6 8-10 2-3 3-7 3-11v-12h-250v12c0 4 1 8 3 12 2 3 5 6 8 9 4 3 8 5 13 7 5 1 10 2 15 2h173z m-129-334h84v-80c-1-12-5-23-13-31-7-9-18-13-28-14-12 0-22 5-30 14-8 8-13 20-13 32v79z m84 292h-84v-292h84v292z" horiz-adv-x="1000" />

<glyph glyph-name="064-pension" unicode="&#xe849;" d="M821 600c19 0 34-15 34-33 0-111-20-221-58-326-12-34-25-70-41-109l23-128c32 4 64 9 96 16 18 4 37-7 41-25 4-17-7-35-26-39-45-10-90-16-136-20-159-13-319 19-459 92-42 20-81 46-117 76-14 11-15 32-3 46 12 14 34 15 48 3 23-19 47-36 73-51l58 119v118c0 11 5 20 14 26 8 6 19 9 29 6l345-80c30 89 45 182 45 276 0 18 15 33 34 33z m-101-372l-297 70v-59l277-64c7 18 14 36 20 53z m-312-53l-52-104c110-51 232-76 355-72l-20 111-283 65z m12 423c0-94-76-169-168-169-93 0-169 75-169 169 0 93 76 169 169 169 92 0 168-76 168-169z m-200-11h-51v22h51c3 0 5 1 7 3 3 2 4 5 4 8 0 3-1 5-4 8-2 2-4 3-7 3h-44v2c9 19 23 34 41 43 18 9 39 12 59 7 17-4 33-13 45-27 1-1 3-2 4-2 2-1 3-1 5-1 1 0 3 0 4 1 1 0 3 1 4 2 2 3 3 5 3 8 0 4-1 6-3 9-10 10-22 19-35 25-14 6-28 10-43 10-19 1-38-4-55-13-25-13-44-36-52-63-1-1 0-2 0-2 0 0-1 0-3 0h-18c-2 0-4-1-6-2-2-2-3-4-4-6 0-2 0-4 0-7 1-2 3-4 5-5 2-1 4-2 7-2h12v-21h-14c-1 0-2 0-4-1-1-1-2-1-3-2-1-2-2-3-3-4 0-2 0-3 0-5 0-1 0-2 1-4 0-1 1-2 2-3 1-1 2-2 4-3 1 0 2 0 4 0h16c4 0 4-1 4-3 5-16 14-30 26-42 12-12 26-20 42-26 16-5 33-7 49-5 16 2 32 8 46 17 8 5 16 12 22 19 2 2 3 4 3 6 0 2 0 4-1 6-1 1-2 3-3 4-2 0-3 1-5 1-2 0-4 0-5-1-2-1-4-2-5-4-9-10-21-18-33-22-13-5-27-7-40-5-13 1-26 5-37 12-11 6-20 15-28 26-3 5-6 11-9 17h45c3 0 6 1 8 3 2 2 3 5 3 8 0 3-1 5-3 8-2 2-5 3-8 3z" horiz-adv-x="1000" />

<glyph glyph-name="065-pets" unicode="&#xe84a;" d="M708 125c-2-25-8-49-18-70-11-22-25-41-42-56-15-12-32-20-51-23-18-3-36-1-54 6-13 7-27 12-41 14-17-1-33-7-48-15-19-6-39-7-59-3-19 5-37 15-52 30-22 22-37 50-45 82-5 16-7 32-6 49 1 17 5 33 12 48 13 23 35 38 48 63 9 18 13 41 21 61 12 24 29 44 49 58 21 14 44 22 69 22 29 3 58-3 83-20 26-16 46-42 57-72 5-18 10-35 17-52 12-23 34-34 47-56 11-20 15-43 13-66z m-450 204c-9-9-20-16-32-19-15-3-30-2-44 4-14 5-26 14-34 26-15 21-23 47-23 73 0 27 9 52 25 73 7 9 15 16 25 22 10 5 21 8 32 9 17 0 33-6 46-16 13-10 23-24 29-39 9-22 12-47 8-70-5-24-16-46-32-63z m200 271c1-14-1-27-7-39-5-12-12-23-22-32-10-9-23-13-36-12-12 0-25 6-34 16-8 8-14 17-18 28-5 11-7 22-7 34-2 21 4 43 15 60 5 9 13 16 21 21 9 5 19 8 29 7 10 0 19-3 28-9 8-6 15-14 19-23 9-16 13-33 12-51z m194-55c-6-9-13-16-22-21-8-5-18-8-28-7-10 0-20 3-28 9-8 6-15 14-19 24-9 15-14 32-13 50-1 14 2 27 7 39 5 13 12 23 22 32 10 9 23 13 36 12 12 0 25-6 34-16 8-8 14-17 18-28 5-11 7-22 7-34 2-21-3-42-14-60z m223-133c1-17-2-33-9-48-7-16-17-29-30-40-13-11-30-16-48-16-17 1-33 9-45 21-11 10-19 22-25 35-6 13-9 28-9 42-2 27 5 54 20 76 7 11 17 20 28 26 12 6 25 9 38 9 13-1 26-5 37-12 11-7 20-17 26-29 12-19 18-41 17-64z" horiz-adv-x="1000" />

<glyph glyph-name="066-location-alert" unicode="&#xe84b;" d="M500 567c-43 0-84-13-119-37-36-23-63-57-80-96-16-40-20-83-12-125 8-42 29-80 59-111 30-30 68-50 110-59 42-8 85-4 124 13 40 16 73 44 97 79 24 36 36 77 36 120 0 57-22 112-63 153-40 40-95 63-152 63z m0 158c8 0 15-3 21-8 6-5 9-12 10-19v-71c63-7 121-35 165-79 45-45 73-103 80-166h66c8 1 16-2 23-8 6-5 9-13 10-21 0-8-2-17-8-23-5-6-13-10-21-10h-70c-8-63-36-121-80-165-44-45-103-73-165-80v-67c1-8-2-16-8-23-5-6-13-9-21-10-8 0-16 2-23 8-6 5-10 13-10 21v71c-62 7-121 35-165 79-44 45-72 103-79 166h-67c-8-1-16 2-22 8-7 5-10 13-11 21 0 8 2 17 8 23 5 6 13 10 21 10h70c7 63 35 121 80 166 44 44 103 72 165 79v67c0 8 3 16 9 22 6 6 14 9 22 9z" horiz-adv-x="1000" />

<glyph glyph-name="068-security" unicode="&#xe84c;" d="M165 508c19 2 37-11 39-31 26-209 112-411 307-474 19-7 29-27 23-45-6-19-26-29-45-23-236 77-329 317-355 533-3 20 11 38 31 40z m361 247c13-15 12-37-2-50-52-47-114-72-176-88-44-11-91-19-135-26-6-1-11-2-17-3 1-37 4-74 8-111 2-20-11-37-31-39-19-3-37 11-39 31-6 49-9 99-9 150 0 17 12 31 29 34 17 3 34 6 51 9 43 7 84 13 125 24 56 15 106 36 146 72 15 13 37 11 50-3z m-51 1c13 14 36 14 50 1 35-35 97-55 154-69 55-13 110-25 167-35 19-3 32-21 29-41-4-19-22-32-41-28-58 10-115 21-172 36-55 13-135 36-187 86-14 13-14 36 0 50z m363-102c19 1 36-14 37-34l-36-2c36 2 36 2 36 2l0 0 0-1 0-1c0-1 0-3 0-5 0-4 0-10 0-18 0-15-1-37-3-64-3-53-12-126-33-202-41-152-130-330-328-394-19-6-39 4-45 23-6 18 5 38 23 45 164 53 243 201 282 344 19 71 27 139 31 189 2 25 2 46 2 60 0 7 0 12 0 16 0 2 0 3 0 4l0 1 0 0m34 37c-20-1-35-17-34-37l34 37z m-200-164c16-11 20-33 10-49l-152-227c-6-9-17-15-28-15-12-1-22 5-29 14l-85 112c-12 15-9 38 6 49 16 12 38 9 50-6l55-73 124 185c11 17 33 21 49 10z" horiz-adv-x="1000" />

<glyph glyph-name="067-other-policies" unicode="&#xe84d;" d="M667 403c9 0 19-2 27-8 9-5 15-12 19-21 4-9 5-19 3-29-1-9-6-18-13-25-6-7-15-12-25-14-9-2-19-1-28 2-9 4-17 10-23 18-5 8-8 18-8 27 0 13 5 26 14 35 9 9 21 15 34 15z m-172 0c10 0 19-2 28-8 8-5 14-12 18-21 4-9 5-19 4-29-2-9-7-18-13-25-7-7-16-12-25-14-10-2-20-1-29 2-9 4-17 10-22 18-6 8-9 18-9 27 0 7 1 13 4 19 2 6 6 12 10 16 5 5 10 9 16 11 6 3 13 4 19 4h-1z m-172 0c13 0 26-5 35-14 9-10 15-22 15-35 0-13-6-26-15-35-9-9-22-14-35-14-13 0-25 5-34 14-10 9-15 22-15 35 0 13 5 25 15 35 9 9 21 14 34 14z m177 364c-82 0-163-25-231-71-69-45-122-110-154-186-31-77-40-160-24-241 16-81 56-155 114-214 59-58 133-98 214-114 81-16 164-8 241 24 76 32 141 85 186 154 46 68 71 149 71 231 0 55-11 109-32 160-21 50-52 96-90 135-39 38-85 69-135 90-51 21-105 32-160 32z m0 83c99 0 196-29 278-84 82-55 146-133 184-225 38-91 48-192 28-288-19-97-66-187-136-257-70-70-159-117-256-136-97-20-198-10-289 28-92 38-170 102-225 184-55 82-84 179-84 278 0 133 53 260 146 354 94 93 221 146 354 146z" horiz-adv-x="1000" />

<glyph glyph-name="069-chat" unicode="&#xe84e;" d="M502 378c-5 0-10-2-14-5-5-3-8-7-10-12-2-5-2-11-1-16 1-5 4-10 8-14 3-3 8-6 13-7 6-1 11 0 16 1 5 2 9 6 12 10 3 5 5 10 5 15 0 4 0 8-2 11-1 4-3 7-6 10-3 2-6 4-10 6-3 1-7 2-11 1z m-221 28c-11 0-21-3-30-9-10-6-17-14-21-24-4-10-6-21-4-32 2-11 7-21 15-29 8-7 17-13 28-15 11-2 22-1 32 3 10 4 19 11 25 20 6 9 10 19 10 30 0 7-1 15-4 21-3 7-7 13-12 19-5 5-11 9-18 12-6 3-13 4-21 4z m444 0c-11 0-22-3-31-9-9-6-16-14-21-24-4-10-5-21-3-32 2-11 7-21 14-29 8-7 18-13 29-15 10-2 21-1 31 3 11 4 19 11 26 20 6 9 9 19 9 30 1 7-1 15-4 22-2 6-6 13-12 18-5 5-11 9-18 12-7 3-14 4-21 4h1z m28-497c-79-39-165-60-253-59-315 0-498 268-498 500 0 299 253 500 500 500 311 0 498-264 498-472-1-131-49-258-136-356-3-6-5-13-4-20 0-7 2-14 6-19 0 0 54-94 106-130h-7c-58 1-113 20-159 55-16 16-29 14-54 1h1z" horiz-adv-x="1000" />

<glyph glyph-name="070-mouse" unicode="&#xe84f;" d="M555 131c0-120-108-219-242-219-135 0-243 98-243 219v438c0 120 108 219 243 219 134 0 242-98 242-219v-438z m-242 719c-173 0-313-125-313-281v-438c0-156 140-281 313-281 172 0 312 125 312 281v438c0 154-140 281-312 281z m0-354c23 0 41 18 41 41 0 23-18 42-41 42-23 0-42-19-42-42 0-23 19-41 42-41z" horiz-adv-x="625" />

<glyph glyph-name="075-assistance-localization-negative" unicode="&#xe850;" d="M399-151c-6 0-11 1-16 4-5 2-10 6-13 10l-275 357c-120 143-103 394 37 526 70 67 164 104 261 104h6c99 0 194-37 266-104 133-125 150-381 35-527l-273-356c-3-4-7-8-12-10-5-3-11-4-16-4z m0 959h-6c-86 0-170-33-233-92-123-116-139-345-33-470l272-354 270 351c101 128 86 362-30 472-65 60-151 94-240 93z m153-256l-44-44-53 52 45 45c-10 3-21 4-32 4-21-3-40-12-54-28-14-15-21-35-21-56 0-8 1-15 3-23l-143-127c-5-4-9-10-12-16-2-6-4-12-4-19 0-6 1-13 4-19 2-6 6-12 11-16 4-5 10-9 16-11 6-3 13-4 19-4 7 0 13 2 20 4 6 3 11 7 16 12l126 143c13-4 28-5 42-2 11 2 22 6 31 13 9 7 17 16 23 26 6 10 9 21 11 32 1 12 0 23-4 34h0z" horiz-adv-x="792" />

<glyph glyph-name="076-assistance-localization" unicode="&#xe851;" d="M766 748c-72 67-167 103-266 102h-4c-95 0-188-37-257-102-135-127-156-377-36-519l287-373c1-2 3-3 5-4 3-1 5-2 8-2 2 0 5 1 7 2 2 1 4 2 6 4l284 372c113 143 97 396-34 520z m-103-186l-47-46-53 54 46 47c-12 3-23 5-35 4-21-2-41-12-56-28-14-16-22-37-22-59 0-8 2-16 4-24l-149-132c-5-5-9-10-12-17-3-6-5-13-5-20 0-7 1-13 4-20 3-6 6-12 11-17 5-5 11-9 18-11 6-3 13-4 20-4 7 0 14 2 20 4 6 3 12 7 17 12l131 149c15-5 31-5 47-2 15 4 29 12 40 23 11 11 19 25 22 40 4 16 3 32-1 47z" horiz-adv-x="1000" />

<glyph glyph-name="download" unicode="&#xe852;" d="M813-25c33 0 64 13 88 37 23 23 37 55 37 88v375c0 33-14 65-37 88-24 24-55 37-88 37h-225c-8 0-16 3-22 9l-88 89c-9 8-19 15-30 20-12 5-24 7-36 7h-224c-34 0-65-13-89-37-23-23-36-55-36-88v-500c0-33 13-65 36-88 24-24 55-37 89-37h625z m-282 438c0 8-3 16-9 22-6 6-14 9-22 9-8 0-16-3-22-9-6-6-9-14-9-22v-175l-72 72c-6 5-14 8-22 8-8 0-16-3-21-9-6-6-9-14-9-22-1-8 2-16 8-22l125-125c6-5 14-9 22-9 8 0 16 4 22 9l125 125c3 3 6 7 7 11 2 3 3 8 3 12 0 4-1 8-2 12-2 4-4 7-7 10-3 3-7 6-10 7-4 2-9 3-13 3-4 0-8-1-12-3-4-2-7-4-10-7l-72-72v175z" horiz-adv-x="1000" />

<glyph glyph-name="eye" unicode="&#xe853;" d="M500 225c33 0 65 13 88 37 24 23 37 55 37 88 0 33-13 65-37 88-23 24-55 37-88 37-33 0-65-13-88-37-24-23-37-55-37-88 0-33 13-65 37-88 23-24 55-37 88-37z m-445 148c62 186 238 321 445 321 207 0 383-134 445-321 5-15 5-31 0-46-62-186-238-321-445-321-207 0-383 135-445 321-5 15-5 31 0 46h0z m664-23c0-58-23-114-64-155-41-41-97-64-155-64-58 0-114 23-155 64-41 41-64 97-64 155 0 58 23 114 64 155 41 41 97 64 155 64 58 0 114-23 155-64 41-41 64-97 64-155z" horiz-adv-x="1000" />

<glyph glyph-name="link" unicode="&#xe854;" d="M822 336c71 70 71 183 0 253-62 62-159 70-231 19l-2-1c-18-13-22-38-9-55 13-18 38-22 55-10l2 2c40 28 95 24 129-11 39-39 39-102 0-141l-139-140c-39-39-102-39-141 0-35 35-40 89-11 129l1 2c13 18 9 43-9 55-18 13-43 9-55-9l-2-2c-51-71-43-169 19-231 70-70 184-70 254 0l139 140z m-644 29c-70-71-70-184 0-254 62-62 159-70 231-19l2 1c18 13 22 38 9 56-13 17-38 21-55 9l-2-2c-40-28-95-24-129 11-39 39-39 102 0 142l139 139c39 39 102 39 142 0 34-35 39-89 10-129l-1-2c-13-18-9-43 9-55 18-13 43-9 55 9l2 2c51 71 43 169-19 231-70 70-184 70-254 0l-139-139z" horiz-adv-x="1000" />

<glyph glyph-name="upload" unicode="&#xe855;" d="M547 565v-356c0-25-21-46-47-46-26 0-47 21-47 46v356l-107-108c-19-18-48-18-67 0-18 19-18 48 0 67l188 187c18 19 48 19 66 0l188-187c18-19 18-48 0-67-19-18-48-18-67 0l-107 108z m-328-356h187c0-51 42-93 94-93 52 0 94 42 94 93h187c52 0 94-42 94-93v-47c0-52-42-94-94-94h-562c-52 0-94 42-94 94v47c0 51 42 93 94 93z m539-152c9 0 18 4 25 10 6 7 10 16 10 25 0 10-4 19-10 25-7 7-16 10-25 10-9 0-18-3-25-10-7-6-10-15-10-25 0-9 3-18 10-25 7-6 16-10 25-10z" horiz-adv-x="1000" />

<glyph glyph-name="state=state3,-active_=true" unicode="&#xe856;" d="M312 69c-17 0-34 10-40 26-15 37-22 75-22 114 0 73 25 140 67 194 6 8 15 12 25 16 20 8 37 21 50 39 33 41 73 75 120 100 30 16 56 39 68 71 9 22 14 46 14 70v26c0 8 3 16 9 22 6 6 14 9 22 9 25 0 49-10 66-27 18-18 28-42 28-66 0-48-11-94-30-135-11-23 4-53 30-53h130c43 0 81-29 86-71 2-18 3-36 3-54 0-114-39-225-111-313-16-20-41-31-67-31h-167c-20 0-40 4-59 10l-130 43c-19 7-39 10-59 10h-33z m-215 324c-23-59-35-121-34-184-1-49 7-98 21-146 11-35 45-57 82-57h38c19 0 30 21 22 38-25 51-39 108-38 165 0 72 19 138 54 195 10 17-1 40-21 40h-44c-35 0-67-19-80-51z" horiz-adv-x="1000" />

<glyph glyph-name="state=state4,-active_=true" unicode="&#xe857;" d="M655 631h44c33-51 51-110 51-172 0-61-18-120-51-171h-7c-33 0-63-19-84-45-33-42-73-76-119-100-31-16-57-40-69-72-9-22-14-46-14-70v-26c0-8-3-16-9-22-6-6-14-9-22-9-25 0-49 10-66 27-18 18-28 42-28 67 0 48 11 93 30 134 12 23-4 53-30 53h-130c-43 0-81 29-86 72-2 17-2 35-2 53 0 119 41 228 110 313 16 21 41 31 67 31h167c20 0 40-3 59-10l130-43c19-6 39-10 59-10z m248-355c22 57 35 119 35 183 0 51-8 100-22 147-11 35-45 57-82 57h-38c-19 0-30-21-22-38 25-50 39-106 39-166 0-68-19-135-55-194-10-17 2-40 21-40h44c35 0 67 19 80 51z" horiz-adv-x="1000" />

<glyph glyph-name="state=thumbs-down,-active_=false" unicode="&#xe858;" d="M313 225h93m335 406c0-2 1-4 2-6 24-50 38-106 38-166 0-59-14-118-41-171m1 343c-4 16 7 32 24 32h37c37 0 72-22 83-57 14-47 21-96 21-147 0-64-12-126-34-183-13-32-46-51-80-51h-44c-20 0-31 23-21 40 4 7 9 15 13 23m1 343h-54c-20 0-40 4-60 10l-129 43c-19 7-39 10-60 10h-167c-26 0-51-10-67-31-71-88-110-199-110-313 0-18 1-36 3-53 4-43 42-72 85-72h130c26 0 42-30 31-53-20-42-31-88-30-134 0-25 9-49 27-67 18-17 41-27 66-27 9 0 17 3 22 9 6 6 10 14 10 22v26c0 24 4 48 13 70 13 32 39 56 69 72 46 24 87 58 119 100 21 26 51 45 85 45h16" horiz-adv-x="1000" />

<glyph glyph-name="state=thumbs-up,-active_=false" unicode="&#xe859;" d="M276 413c34 0 64 18 85 45 32 41 73 75 119 100 30 16 57 39 69 71 9 22 14 46 14 70v26c0 8 3 16 9 22 6 6 14 9 22 9 25 0 49-10 66-27 18-18 28-42 28-66 0-48-11-94-31-135-11-23 5-53 31-53h130c43 0 81-29 85-71 2-18 3-36 3-54 0-114-38-225-110-313-16-20-41-31-67-31h-167c-20 0-40 4-60 10l-129 43c-19 7-39 10-60 10h-67m0 0c4-9 7-17 11-25 9-17-3-38-21-38h-38c-37 0-72 22-82 57-15 48-22 97-22 146 0 65 12 127 34 184 13 32 46 51 80 51h44c20 0 31-23 21-40-35-59-54-126-54-195 0-49 10-97 27-140h0z m348 406h94" horiz-adv-x="1000" />

<glyph glyph-name="type=filled" unicode="&#xe85a;" d="M483 76l-175-97c-6-3-12-4-19-4-7 1-14 3-19 7-6 5-10 10-12 17-3 7-4 14-2 21l33 204c1 6 0 12-1 18-2 6-5 11-9 16l-143 144c-4 4-6 8-8 12-2 5-3 10-3 15 0 5 1 10 3 15 2 5 4 9 8 12 5 6 13 10 21 11l197 30c6 1 12 3 17 7 4 4 8 9 11 14l85 186c2 4 5 8 9 11 3 4 8 6 12 8 5 2 9 2 14 2 5 0 10-2 14-4 7-4 13-10 17-17l87-186c2-5 6-10 11-14 5-4 11-6 16-7l196-30c6 0 13-3 18-8 6-4 10-10 12-17 2-7 3-14 1-21-2-7-5-14-10-19l-141-144c-4-5-7-10-9-16-2-6-2-12-1-18l33-204c1-5 0-10-1-15-1-5-3-10-5-14-3-4-7-7-11-10-4-3-8-5-13-5-8-2-16 0-23 3l-174 97c-6 3-12 5-18 5-7 0-13-2-18-5z" horiz-adv-x="1000" />

<glyph glyph-name="star" unicode="&#xe85b;" d="M929 489q0-12-15-27l-202-197 48-279q0-4 0-12 0-11-6-19t-17-9q-10 0-22 7l-251 132-250-132q-12-7-23-7-11 0-17 9t-6 19q0 4 1 12l48 279-203 197q-14 15-14 27 0 21 31 26l280 40 126 254q11 23 27 23t28-23l125-254 280-40q32-5 32-26z" horiz-adv-x="928.6" />

<glyph glyph-name="type=apps,-size=16,-name=whatsapp" unicode="&#xe85c;" d="M832 683c-88 87-205 136-330 136-257 0-467-209-467-465 0-82 22-161 63-232l-67-241 248 65c68-37 145-57 223-57h0c257 0 467 209 467 465 0 124-49 241-137 329z m-330-715h0c-70 0-138 18-198 54l-14 8-147-38 40 142-10 15c-39 61-59 132-59 205 0 213 174 386 388 386 104 0 201-40 274-113 74-73 114-170 114-273 0-213-174-386-388-386z m213 289c-12 6-69 34-80 38-11 4-18 6-26-6-8-12-30-38-37-46-7-7-14-8-25-2-12 5-50 18-94 57-35 31-58 69-65 81-7 11-1 18 5 23 5 5 12 14 18 21 5 6 7 11 11 19 4 8 2 15-1 20-3 6-26 63-36 87-9 22-19 19-26 19-7 1-14 1-22 1-8 0-21-3-31-15-11-11-41-39-41-97 0-57 42-112 48-120 5-7 82-125 199-175 28-12 49-19 66-24 28-9 54-8 74-5 22 3 69 28 78 55 10 27 10 51 7 55-3 5-11 8-22 14z" horiz-adv-x="1000" />

<glyph glyph-name="star-empty" unicode="&#xe85d;" d="M635 290l170 166-235 34-106 213-105-213-236-34 171-166-41-235 211 111 211-111z m294 199q0-12-15-27l-202-197 48-279q0-4 0-12 0-28-23-28-10 0-22 7l-251 132-250-132q-12-7-23-7-11 0-17 9t-6 19q0 4 1 12l48 279-203 197q-14 15-14 27 0 21 31 26l280 40 126 254q11 23 27 23t28-23l125-254 280-40q32-5 32-26z" horiz-adv-x="928.6" />
</font>
</defs>
</svg>
